G04 #@! TF.GenerationSoftware,KiCad,Pcbnew,10.0.3*
G04 #@! TF.CreationDate,2026-09-19T11:40:26+09:00*
G04 #@! TF.ProjectId,ai05-env-sensors,61693035-2d65-46e7-962d-73656e736f72,rev?*
G04 #@! TF.SameCoordinates,Original*
G04 #@! TF.FileFunction,Profile,NP*
%FSLAX46Y46*%
G04 Gerber Fmt 4.6, Leading zero omitted, Abs format (unit mm)*
G04 Created by KiCad (PCBNEW 10.0.3) date 2026-09-19 11:40:26*
%MOMM*%
%LPD*%
G01*
G04 APERTURE LIST*
G04 #@! TA.AperFunction,Profile*
%ADD10C,0.050000*%
G04 #@! TD*
G04 APERTURE END LIST*
D10*
X55000000Y-48000000D02*
G75*
G02*
X58000000Y-45000000I3000000J0D01*
G01*
X55000000Y-56000000D02*
X55000000Y-48000000D01*
X55000000Y-56000000D02*
X56000000Y-57000000D01*
X55000000Y-76000000D02*
X55000000Y-58000000D01*
X55000000Y-78000000D02*
X56000000Y-77000000D01*
X55000000Y-84000000D02*
X55000000Y-78000000D01*
X55000000Y-86000000D02*
X56000000Y-85000000D01*
X55000000Y-104000000D02*
X55000000Y-86000000D01*
X55000000Y-106000000D02*
X56000000Y-105000000D01*
X55000000Y-112000000D02*
X55000000Y-106000000D01*
X55000000Y-114000000D02*
X56000000Y-113000000D01*
X55000000Y-132000000D02*
X55000000Y-114000000D01*
X55000000Y-134000000D02*
X56000000Y-133000000D01*
X55000000Y-142000000D02*
X55000000Y-134000000D01*
X56000000Y-57000000D02*
X55000000Y-58000000D01*
X56000000Y-77000000D02*
X55000000Y-76000000D01*
X56000000Y-85000000D02*
X55000000Y-84000000D01*
X56000000Y-105000000D02*
X55000000Y-104000000D01*
X56000000Y-113000000D02*
X55000000Y-112000000D01*
X56000000Y-133000000D02*
X55000000Y-132000000D01*
X58000000Y-45000000D02*
X164000000Y-45000000D01*
X58000000Y-145000000D02*
G75*
G02*
X55000000Y-142000000I0J3000000D01*
G01*
X60000000Y-56000000D02*
X60000000Y-78000000D01*
X60000000Y-56000000D02*
G75*
G02*
X61000000Y-55000000I1000000J0D01*
G01*
X60000000Y-84000000D02*
X60000000Y-106000000D01*
X60000000Y-84000000D02*
G75*
G02*
X61000000Y-83000000I1000000J0D01*
G01*
X60000000Y-112000000D02*
X60000000Y-134000000D01*
X60000000Y-112000000D02*
G75*
G02*
X61000000Y-111000000I1000000J0D01*
G01*
X61000000Y-55000000D02*
X64500000Y-55000000D01*
X61000000Y-79000000D02*
G75*
G02*
X60000000Y-78000000I0J1000000D01*
G01*
X61000000Y-79000000D02*
X63000000Y-79000000D01*
X61000000Y-83000000D02*
X64500000Y-83000000D01*
X61000000Y-107000000D02*
G75*
G02*
X60000000Y-106000000I0J1000000D01*
G01*
X61000000Y-107000000D02*
X63000000Y-107000000D01*
X61000000Y-111000000D02*
X64500000Y-111000000D01*
X61000000Y-135000000D02*
G75*
G02*
X60000000Y-134000000I0J1000000D01*
G01*
X61000000Y-135000000D02*
X63000000Y-135000000D01*
X62000000Y-62500000D02*
X62000000Y-76000000D01*
X62000000Y-62500000D02*
G75*
G02*
X62500000Y-62000000I500000J0D01*
G01*
X62000000Y-90500000D02*
X62000000Y-104000000D01*
X62000000Y-90500000D02*
G75*
G02*
X62500000Y-90000000I500000J0D01*
G01*
X62000000Y-118500000D02*
X62000000Y-132000000D01*
X62000000Y-118500000D02*
G75*
G02*
X62500000Y-118000000I500000J0D01*
G01*
X62500000Y-62000000D02*
X63500000Y-62000000D01*
X62500000Y-90000000D02*
X63500000Y-90000000D01*
X62500000Y-118000000D02*
X63500000Y-118000000D01*
X63000000Y-77000000D02*
G75*
G02*
X62000004Y-75995303I1400J1001400D01*
G01*
X63000000Y-77000000D02*
G75*
G02*
X63000000Y-79000000I0J-1000000D01*
G01*
X63000000Y-105000000D02*
G75*
G02*
X62000004Y-103995303I1400J1001400D01*
G01*
X63000000Y-105000000D02*
G75*
G02*
X63000000Y-107000000I0J-1000000D01*
G01*
X63000000Y-133000000D02*
G75*
G02*
X62000004Y-131995303I1400J1001400D01*
G01*
X63000000Y-133000000D02*
G75*
G02*
X63000000Y-135000000I0J-1000000D01*
G01*
X63500000Y-58000000D02*
X63500000Y-61000000D01*
X63500000Y-58000000D02*
G75*
G02*
X64500000Y-57000000I1000000J0D01*
G01*
X63500000Y-61000000D02*
G75*
G02*
X63500000Y-62000000I0J-500000D01*
G01*
X63500000Y-86000000D02*
X63500000Y-89000000D01*
X63500000Y-86000000D02*
G75*
G02*
X64500000Y-85000000I1000000J0D01*
G01*
X63500000Y-89000000D02*
G75*
G02*
X63500000Y-90000000I0J-500000D01*
G01*
X63500000Y-114000000D02*
X63500000Y-117000000D01*
X63500000Y-114000000D02*
G75*
G02*
X64500000Y-113000000I1000000J0D01*
G01*
X63500000Y-117000000D02*
G75*
G02*
X63500000Y-118000000I0J-500000D01*
G01*
X64500000Y-55000000D02*
G75*
G02*
X64500000Y-57000000I0J-1000000D01*
G01*
X64500000Y-83000000D02*
G75*
G02*
X64500000Y-85000000I0J-1000000D01*
G01*
X64500000Y-111000000D02*
G75*
G02*
X64500000Y-113000000I0J-1000000D01*
G01*
X82500000Y-57000000D02*
G75*
G02*
X82500000Y-55000000I0J1000000D01*
G01*
X82500000Y-57000000D02*
G75*
G02*
X83500000Y-58000000I0J-1000000D01*
G01*
X82500000Y-85000000D02*
G75*
G02*
X82500000Y-83000000I0J1000000D01*
G01*
X82500000Y-85000000D02*
G75*
G02*
X83500000Y-86000000I0J-1000000D01*
G01*
X82500000Y-113000000D02*
G75*
G02*
X82500000Y-111000000I0J1000000D01*
G01*
X82500000Y-113000000D02*
G75*
G02*
X83500000Y-114000000I0J-1000000D01*
G01*
X83500000Y-58000000D02*
X83500000Y-61000000D01*
X83500000Y-62000000D02*
G75*
G02*
X83500000Y-61000000I0J500000D01*
G01*
X83500000Y-86000000D02*
X83500000Y-89000000D01*
X83500000Y-90000000D02*
G75*
G02*
X83500000Y-89000000I0J500000D01*
G01*
X83500000Y-114000000D02*
X83500000Y-117000000D01*
X83500000Y-118000000D02*
G75*
G02*
X83500000Y-117000000I0J500000D01*
G01*
X84000000Y-79000000D02*
G75*
G02*
X84000000Y-77000000I0J1000000D01*
G01*
X84000000Y-79000000D02*
X88000000Y-79000000D01*
X84000000Y-107000000D02*
G75*
G02*
X84000000Y-105000000I0J1000000D01*
G01*
X84000000Y-107000000D02*
X88000000Y-107000000D01*
X84000000Y-135000000D02*
G75*
G02*
X84000000Y-133000000I0J1000000D01*
G01*
X84000000Y-135000000D02*
X88000000Y-135000000D01*
X84500000Y-62000000D02*
X83500000Y-62000000D01*
X84500000Y-62000000D02*
G75*
G02*
X85000000Y-62500000I0J-500000D01*
G01*
X84500000Y-90000000D02*
X83500000Y-90000000D01*
X84500000Y-90000000D02*
G75*
G02*
X85000000Y-90500000I0J-500000D01*
G01*
X84500000Y-118000000D02*
X83500000Y-118000000D01*
X84500000Y-118000000D02*
G75*
G02*
X85000000Y-118500000I0J-500000D01*
G01*
X85000000Y-62500000D02*
X85000000Y-76000000D01*
X85000000Y-76000000D02*
G75*
G02*
X84000000Y-77000000I-1000000J0D01*
G01*
X85000000Y-90500000D02*
X85000000Y-104000000D01*
X85000000Y-104000000D02*
G75*
G02*
X84000000Y-105000000I-1000000J0D01*
G01*
X85000000Y-118500000D02*
X85000000Y-132000000D01*
X85000000Y-132000000D02*
G75*
G02*
X84000000Y-133000000I-1000000J0D01*
G01*
X87000000Y-62500000D02*
X87000000Y-76000000D01*
X87000000Y-62500000D02*
G75*
G02*
X87500000Y-62000000I500000J0D01*
G01*
X87000000Y-90500000D02*
X87000000Y-104000000D01*
X87000000Y-90500000D02*
G75*
G02*
X87500000Y-90000000I500000J0D01*
G01*
X87000000Y-118500000D02*
X87000000Y-132000000D01*
X87000000Y-118500000D02*
G75*
G02*
X87500000Y-118000000I500000J0D01*
G01*
X87500000Y-62000000D02*
X88500000Y-62000000D01*
X87500000Y-90000000D02*
X88500000Y-90000000D01*
X87500000Y-118000000D02*
X88500000Y-118000000D01*
X88000000Y-77000000D02*
G75*
G02*
X87000004Y-75995303I1400J1001400D01*
G01*
X88000000Y-77000000D02*
G75*
G02*
X88000000Y-79000000I0J-1000000D01*
G01*
X88000000Y-105000000D02*
G75*
G02*
X87000004Y-103995303I1400J1001400D01*
G01*
X88000000Y-105000000D02*
G75*
G02*
X88000000Y-107000000I0J-1000000D01*
G01*
X88000000Y-133000000D02*
G75*
G02*
X87000004Y-131995303I1400J1001400D01*
G01*
X88000000Y-133000000D02*
G75*
G02*
X88000000Y-135000000I0J-1000000D01*
G01*
X88500000Y-58000000D02*
X88500000Y-61000000D01*
X88500000Y-58000000D02*
G75*
G02*
X89500000Y-57000000I1000000J0D01*
G01*
X88500000Y-61000000D02*
G75*
G02*
X88500000Y-62000000I0J-500000D01*
G01*
X88500000Y-86000000D02*
X88500000Y-89000000D01*
X88500000Y-86000000D02*
G75*
G02*
X89500000Y-85000000I1000000J0D01*
G01*
X88500000Y-89000000D02*
G75*
G02*
X88500000Y-90000000I0J-500000D01*
G01*
X88500000Y-114000000D02*
X88500000Y-117000000D01*
X88500000Y-114000000D02*
G75*
G02*
X89500000Y-113000000I1000000J0D01*
G01*
X88500000Y-117000000D02*
G75*
G02*
X88500000Y-118000000I0J-500000D01*
G01*
X89500000Y-55000000D02*
X82500000Y-55000000D01*
X89500000Y-55000000D02*
G75*
G02*
X89500000Y-57000000I0J-1000000D01*
G01*
X89500000Y-83000000D02*
X82500000Y-83000000D01*
X89500000Y-83000000D02*
G75*
G02*
X89500000Y-85000000I0J-1000000D01*
G01*
X89500000Y-111000000D02*
X82500000Y-111000000D01*
X89500000Y-111000000D02*
G75*
G02*
X89500000Y-113000000I0J-1000000D01*
G01*
X107500000Y-57000000D02*
G75*
G02*
X107500000Y-55000000I0J1000000D01*
G01*
X107500000Y-57000000D02*
G75*
G02*
X108500000Y-58000000I0J-1000000D01*
G01*
X107500000Y-85000000D02*
G75*
G02*
X107500000Y-83000000I0J1000000D01*
G01*
X107500000Y-85000000D02*
G75*
G02*
X108500000Y-86000000I0J-1000000D01*
G01*
X107500000Y-113000000D02*
G75*
G02*
X107500000Y-111000000I0J1000000D01*
G01*
X107500000Y-113000000D02*
G75*
G02*
X108500000Y-114000000I0J-1000000D01*
G01*
X108500000Y-58000000D02*
X108500000Y-61000000D01*
X108500000Y-62000000D02*
G75*
G02*
X108500000Y-61000000I0J500000D01*
G01*
X108500000Y-86000000D02*
X108500000Y-89000000D01*
X108500000Y-90000000D02*
G75*
G02*
X108500000Y-89000000I0J500000D01*
G01*
X108500000Y-114000000D02*
X108500000Y-117000000D01*
X108500000Y-118000000D02*
G75*
G02*
X108500000Y-117000000I0J500000D01*
G01*
X109000000Y-79000000D02*
G75*
G02*
X109000000Y-77000000I0J1000000D01*
G01*
X109000000Y-79000000D02*
X113000000Y-79000000D01*
X109000000Y-107000000D02*
G75*
G02*
X109000000Y-105000000I0J1000000D01*
G01*
X109000000Y-107000000D02*
X113000000Y-107000000D01*
X109000000Y-135000000D02*
G75*
G02*
X109000000Y-133000000I0J1000000D01*
G01*
X109000000Y-135000000D02*
X113000000Y-135000000D01*
X109500000Y-62000000D02*
X108500000Y-62000000D01*
X109500000Y-62000000D02*
G75*
G02*
X110000000Y-62500000I0J-500000D01*
G01*
X109500000Y-90000000D02*
X108500000Y-90000000D01*
X109500000Y-90000000D02*
G75*
G02*
X110000000Y-90500000I0J-500000D01*
G01*
X109500000Y-118000000D02*
X108500000Y-118000000D01*
X109500000Y-118000000D02*
G75*
G02*
X110000000Y-118500000I0J-500000D01*
G01*
X110000000Y-62500000D02*
X110000000Y-76000000D01*
X110000000Y-76000000D02*
G75*
G02*
X109000000Y-77000000I-1000000J0D01*
G01*
X110000000Y-90500000D02*
X110000000Y-104000000D01*
X110000000Y-104000000D02*
G75*
G02*
X109000000Y-105000000I-1000000J0D01*
G01*
X110000000Y-118500000D02*
X110000000Y-132000000D01*
X110000000Y-132000000D02*
G75*
G02*
X109000000Y-133000000I-1000000J0D01*
G01*
X112000000Y-62500000D02*
X112000000Y-76000000D01*
X112000000Y-62500000D02*
G75*
G02*
X112500000Y-62000000I500000J0D01*
G01*
X112000000Y-90500000D02*
X112000000Y-104000000D01*
X112000000Y-90500000D02*
G75*
G02*
X112500000Y-90000000I500000J0D01*
G01*
X112000000Y-118500000D02*
X112000000Y-132000000D01*
X112000000Y-118500000D02*
G75*
G02*
X112500000Y-118000000I500000J0D01*
G01*
X112500000Y-62000000D02*
X113500000Y-62000000D01*
X112500000Y-90000000D02*
X113500000Y-90000000D01*
X112500000Y-118000000D02*
X113500000Y-118000000D01*
X113000000Y-77000000D02*
G75*
G02*
X112000004Y-75995303I1400J1001400D01*
G01*
X113000000Y-77000000D02*
G75*
G02*
X113000000Y-79000000I0J-1000000D01*
G01*
X113000000Y-105000000D02*
G75*
G02*
X112000004Y-103995303I1400J1001400D01*
G01*
X113000000Y-105000000D02*
G75*
G02*
X113000000Y-107000000I0J-1000000D01*
G01*
X113000000Y-133000000D02*
G75*
G02*
X112000004Y-131995303I1400J1001400D01*
G01*
X113000000Y-133000000D02*
G75*
G02*
X113000000Y-135000000I0J-1000000D01*
G01*
X113500000Y-58000000D02*
X113500000Y-61000000D01*
X113500000Y-58000000D02*
G75*
G02*
X114500000Y-57000000I1000000J0D01*
G01*
X113500000Y-61000000D02*
G75*
G02*
X113500000Y-62000000I0J-500000D01*
G01*
X113500000Y-86000000D02*
X113500000Y-89000000D01*
X113500000Y-86000000D02*
G75*
G02*
X114500000Y-85000000I1000000J0D01*
G01*
X113500000Y-89000000D02*
G75*
G02*
X113500000Y-90000000I0J-500000D01*
G01*
X113500000Y-114000000D02*
X113500000Y-117000000D01*
X113500000Y-114000000D02*
G75*
G02*
X114500000Y-113000000I1000000J0D01*
G01*
X113500000Y-117000000D02*
G75*
G02*
X113500000Y-118000000I0J-500000D01*
G01*
X114500000Y-55000000D02*
X107500000Y-55000000D01*
X114500000Y-55000000D02*
G75*
G02*
X114500000Y-57000000I0J-1000000D01*
G01*
X114500000Y-83000000D02*
X107500000Y-83000000D01*
X114500000Y-83000000D02*
G75*
G02*
X114500000Y-85000000I0J-1000000D01*
G01*
X114500000Y-111000000D02*
X107500000Y-111000000D01*
X114500000Y-111000000D02*
G75*
G02*
X114500000Y-113000000I0J-1000000D01*
G01*
X132500000Y-57000000D02*
G75*
G02*
X132500000Y-55000000I0J1000000D01*
G01*
X132500000Y-57000000D02*
G75*
G02*
X133500000Y-58000000I0J-1000000D01*
G01*
X132500000Y-85000000D02*
G75*
G02*
X132500000Y-83000000I0J1000000D01*
G01*
X132500000Y-85000000D02*
G75*
G02*
X133500000Y-86000000I0J-1000000D01*
G01*
X132500000Y-113000000D02*
G75*
G02*
X132500000Y-111000000I0J1000000D01*
G01*
X132500000Y-113000000D02*
G75*
G02*
X133500000Y-114000000I0J-1000000D01*
G01*
X133500000Y-58000000D02*
X133500000Y-61000000D01*
X133500000Y-62000000D02*
G75*
G02*
X133500000Y-61000000I0J500000D01*
G01*
X133500000Y-86000000D02*
X133500000Y-89000000D01*
X133500000Y-90000000D02*
G75*
G02*
X133500000Y-89000000I0J500000D01*
G01*
X133500000Y-114000000D02*
X133500000Y-117000000D01*
X133500000Y-118000000D02*
G75*
G02*
X133500000Y-117000000I0J500000D01*
G01*
X134000000Y-79000000D02*
G75*
G02*
X134000000Y-77000000I0J1000000D01*
G01*
X134000000Y-79000000D02*
X138000000Y-79000000D01*
X134000000Y-107000000D02*
G75*
G02*
X134000000Y-105000000I0J1000000D01*
G01*
X134000000Y-107000000D02*
X138000000Y-107000000D01*
X134000000Y-135000000D02*
G75*
G02*
X134000000Y-133000000I0J1000000D01*
G01*
X134000000Y-135000000D02*
X138000000Y-135000000D01*
X134500000Y-62000000D02*
X133500000Y-62000000D01*
X134500000Y-62000000D02*
G75*
G02*
X135000000Y-62500000I0J-500000D01*
G01*
X134500000Y-90000000D02*
X133500000Y-90000000D01*
X134500000Y-90000000D02*
G75*
G02*
X135000000Y-90500000I0J-500000D01*
G01*
X134500000Y-118000000D02*
X133500000Y-118000000D01*
X134500000Y-118000000D02*
G75*
G02*
X135000000Y-118500000I0J-500000D01*
G01*
X135000000Y-62500000D02*
X135000000Y-76000000D01*
X135000000Y-76000000D02*
G75*
G02*
X134000000Y-77000000I-1000000J0D01*
G01*
X135000000Y-90500000D02*
X135000000Y-104000000D01*
X135000000Y-104000000D02*
G75*
G02*
X134000000Y-105000000I-1000000J0D01*
G01*
X135000000Y-118500000D02*
X135000000Y-132000000D01*
X135000000Y-132000000D02*
G75*
G02*
X134000000Y-133000000I-1000000J0D01*
G01*
X137000000Y-62500000D02*
X137000000Y-76000000D01*
X137000000Y-62500000D02*
G75*
G02*
X137500000Y-62000000I500000J0D01*
G01*
X137000000Y-90500000D02*
X137000000Y-104000000D01*
X137000000Y-90500000D02*
G75*
G02*
X137500000Y-90000000I500000J0D01*
G01*
X137000000Y-118500000D02*
X137000000Y-132000000D01*
X137000000Y-118500000D02*
G75*
G02*
X137500000Y-118000000I500000J0D01*
G01*
X137500000Y-62000000D02*
X138500000Y-62000000D01*
X137500000Y-90000000D02*
X138500000Y-90000000D01*
X137500000Y-118000000D02*
X138500000Y-118000000D01*
X138000000Y-77000000D02*
G75*
G02*
X137000004Y-75995303I1400J1001400D01*
G01*
X138000000Y-77000000D02*
G75*
G02*
X138000000Y-79000000I0J-1000000D01*
G01*
X138000000Y-105000000D02*
G75*
G02*
X137000004Y-103995303I1400J1001400D01*
G01*
X138000000Y-105000000D02*
G75*
G02*
X138000000Y-107000000I0J-1000000D01*
G01*
X138000000Y-133000000D02*
G75*
G02*
X137000004Y-131995303I1400J1001400D01*
G01*
X138000000Y-133000000D02*
G75*
G02*
X138000000Y-135000000I0J-1000000D01*
G01*
X138500000Y-58000000D02*
X138500000Y-61000000D01*
X138500000Y-58000000D02*
G75*
G02*
X139500000Y-57000000I1000000J0D01*
G01*
X138500000Y-61000000D02*
G75*
G02*
X138500000Y-62000000I0J-500000D01*
G01*
X138500000Y-86000000D02*
X138500000Y-89000000D01*
X138500000Y-86000000D02*
G75*
G02*
X139500000Y-85000000I1000000J0D01*
G01*
X138500000Y-89000000D02*
G75*
G02*
X138500000Y-90000000I0J-500000D01*
G01*
X138500000Y-114000000D02*
X138500000Y-117000000D01*
X138500000Y-114000000D02*
G75*
G02*
X139500000Y-113000000I1000000J0D01*
G01*
X138500000Y-117000000D02*
G75*
G02*
X138500000Y-118000000I0J-500000D01*
G01*
X139500000Y-55000000D02*
X132500000Y-55000000D01*
X139500000Y-55000000D02*
G75*
G02*
X139500000Y-57000000I0J-1000000D01*
G01*
X139500000Y-83000000D02*
X132500000Y-83000000D01*
X139500000Y-83000000D02*
G75*
G02*
X139500000Y-85000000I0J-1000000D01*
G01*
X139500000Y-111000000D02*
X132500000Y-111000000D01*
X139500000Y-111000000D02*
G75*
G02*
X139500000Y-113000000I0J-1000000D01*
G01*
X157500000Y-57000000D02*
G75*
G02*
X157500000Y-55000000I0J1000000D01*
G01*
X157500000Y-57000000D02*
G75*
G02*
X158500000Y-58000000I0J-1000000D01*
G01*
X157500000Y-85000000D02*
G75*
G02*
X157500000Y-83000000I0J1000000D01*
G01*
X157500000Y-85000000D02*
G75*
G02*
X158500000Y-86000000I0J-1000000D01*
G01*
X157500000Y-113000000D02*
G75*
G02*
X157500000Y-111000000I0J1000000D01*
G01*
X157500000Y-113000000D02*
G75*
G02*
X158500000Y-114000000I0J-1000000D01*
G01*
X158500000Y-58000000D02*
X158500000Y-61000000D01*
X158500000Y-62000000D02*
G75*
G02*
X158500000Y-61000000I0J500000D01*
G01*
X158500000Y-86000000D02*
X158500000Y-89000000D01*
X158500000Y-90000000D02*
G75*
G02*
X158500000Y-89000000I0J500000D01*
G01*
X158500000Y-114000000D02*
X158500000Y-117000000D01*
X158500000Y-118000000D02*
G75*
G02*
X158500000Y-117000000I0J500000D01*
G01*
X159000000Y-79000000D02*
G75*
G02*
X159000000Y-77000000I0J1000000D01*
G01*
X159000000Y-79000000D02*
X161000000Y-79000000D01*
X159000000Y-107000000D02*
G75*
G02*
X159000000Y-105000000I0J1000000D01*
G01*
X159000000Y-107000000D02*
X161000000Y-107000000D01*
X159000000Y-135000000D02*
G75*
G02*
X159000000Y-133000000I0J1000000D01*
G01*
X159000000Y-135000000D02*
X161000000Y-135000000D01*
X159500000Y-62000000D02*
X158500000Y-62000000D01*
X159500000Y-62000000D02*
G75*
G02*
X160000000Y-62500000I0J-500000D01*
G01*
X159500000Y-90000000D02*
X158500000Y-90000000D01*
X159500000Y-90000000D02*
G75*
G02*
X160000000Y-90500000I0J-500000D01*
G01*
X159500000Y-118000000D02*
X158500000Y-118000000D01*
X159500000Y-118000000D02*
G75*
G02*
X160000000Y-118500000I0J-500000D01*
G01*
X160000000Y-62500000D02*
X160000000Y-76000000D01*
X160000000Y-76000000D02*
G75*
G02*
X159000000Y-77000000I-1000000J0D01*
G01*
X160000000Y-90500000D02*
X160000000Y-104000000D01*
X160000000Y-104000000D02*
G75*
G02*
X159000000Y-105000000I-1000000J0D01*
G01*
X160000000Y-118500000D02*
X160000000Y-132000000D01*
X160000000Y-132000000D02*
G75*
G02*
X159000000Y-133000000I-1000000J0D01*
G01*
X161000000Y-55000000D02*
X157500000Y-55000000D01*
X161000000Y-55000000D02*
G75*
G02*
X162000000Y-56000000I0J-1000000D01*
G01*
X161000000Y-83000000D02*
X157500000Y-83000000D01*
X161000000Y-83000000D02*
G75*
G02*
X162000000Y-84000000I0J-1000000D01*
G01*
X161000000Y-111000000D02*
X157500000Y-111000000D01*
X161000000Y-111000000D02*
G75*
G02*
X162000000Y-112000000I0J-1000000D01*
G01*
X162000000Y-78000000D02*
G75*
G02*
X161000000Y-79000000I-1000000J0D01*
G01*
X162000000Y-78000000D02*
X162000000Y-56000000D01*
X162000000Y-106000000D02*
G75*
G02*
X161000000Y-107000000I-1000000J0D01*
G01*
X162000000Y-106000000D02*
X162000000Y-84000000D01*
X162000000Y-134000000D02*
G75*
G02*
X161000000Y-135000000I-1000000J0D01*
G01*
X162000000Y-134000000D02*
X162000000Y-112000000D01*
X164000000Y-45000000D02*
G75*
G02*
X167000000Y-48000000I0J-3000000D01*
G01*
X164000000Y-145000000D02*
X58000000Y-145000000D01*
X166000000Y-57000000D02*
X167000000Y-58000000D01*
X166000000Y-77000000D02*
X167000000Y-78000000D01*
X166000000Y-85000000D02*
X167000000Y-86000000D01*
X166000000Y-105000000D02*
X167000000Y-106000000D01*
X166000000Y-113000000D02*
X167000000Y-114000000D01*
X166000000Y-133000000D02*
X167000000Y-134000000D01*
X167000000Y-48000000D02*
X167000000Y-56000000D01*
X167000000Y-56000000D02*
X166000000Y-57000000D01*
X167000000Y-58000000D02*
X167000000Y-76000000D01*
X167000000Y-76000000D02*
X166000000Y-77000000D01*
X167000000Y-78000000D02*
X167000000Y-84000000D01*
X167000000Y-84000000D02*
X166000000Y-85000000D01*
X167000000Y-86000000D02*
X167000000Y-104000000D01*
X167000000Y-104000000D02*
X166000000Y-105000000D01*
X167000000Y-106000000D02*
X167000000Y-112000000D01*
X167000000Y-112000000D02*
X166000000Y-113000000D01*
X167000000Y-114000000D02*
X167000000Y-132000000D01*
X167000000Y-132000000D02*
X166000000Y-133000000D01*
X167000000Y-134000000D02*
X167000000Y-142000000D01*
X167000000Y-142000000D02*
G75*
G02*
X164000000Y-145000000I-3000000J0D01*
G01*
M02*
