M48
; DRILL file KiCad 10.0.3 date 2026-09-19T11:40:29
; FORMAT={-:-/ absolute / metric / decimal}
; #@! TF.CreationDate,2026-09-19T11:40:29+09:00
; #@! TF.GenerationSoftware,Kicad,Pcbnew,10.0.3
; #@! TF.FileFunction,Plated,1,4,PTH
FMAT,2
METRIC
; #@! TA.AperFunction,Plated,PTH,ViaDrill
T1C0.300
; #@! TA.AperFunction,Plated,PTH,ComponentDrill
T2C1.000
%
G90
G05
T1
X63.0Y-63.0
X63.0Y-76.0
X63.0Y-91.0
X63.0Y-104.0
X63.0Y-119.0
X63.0Y-132.0
X66.25Y-67.95
X66.25Y-95.95
X66.25Y-123.95
X67.2Y-58.1
X67.2Y-86.1
X67.2Y-114.1
X67.35Y-62.8
X67.35Y-90.8
X67.35Y-118.8
X67.4Y-68.8
X67.4Y-96.8
X67.4Y-124.8
X67.6Y-60.9
X67.6Y-88.9
X67.6Y-116.9
X68.1Y-58.1
X68.1Y-86.1
X68.1Y-114.1
X68.55Y-60.9
X68.55Y-65.0
X68.55Y-88.9
X68.55Y-93.0
X68.55Y-116.9
X68.55Y-121.0
X69.0Y-58.1
X69.0Y-72.6
X69.0Y-73.4
X69.0Y-86.1
X69.0Y-100.6
X69.0Y-101.4
X69.0Y-114.1
X69.0Y-128.6
X69.0Y-129.4
X69.45Y-60.9
X69.45Y-88.9
X69.45Y-116.9
X69.5Y-63.0
X69.5Y-91.0
X69.5Y-119.0
X69.7Y-65.15
X69.7Y-93.15
X69.7Y-121.15
X69.9Y-58.1
X69.9Y-86.1
X69.9Y-114.1
X70.35Y-60.9
X70.35Y-88.9
X70.35Y-116.9
X70.5Y-71.0
X70.5Y-99.0
X70.5Y-127.0
X70.8Y-58.1
X70.8Y-86.1
X70.8Y-114.1
X70.85Y-66.2
X70.85Y-68.85
X70.85Y-94.2
X70.85Y-96.85
X70.85Y-122.2
X70.85Y-124.85
X71.25Y-60.9
X71.25Y-88.9
X71.25Y-116.9
X71.5Y-76.0
X71.5Y-104.0
X71.5Y-132.0
X71.7Y-58.1
X71.7Y-86.1
X71.7Y-114.1
X71.9Y-66.75
X71.9Y-67.6
X71.9Y-94.75
X71.9Y-95.6
X71.9Y-122.75
X71.9Y-123.6
X72.0Y-65.55
X72.0Y-93.55
X72.0Y-121.55
X72.05Y-68.45
X72.05Y-96.45
X72.05Y-124.45
X72.15Y-60.9
X72.15Y-88.9
X72.15Y-116.9
X72.6Y-58.1
X72.6Y-86.1
X72.6Y-114.1
X73.05Y-60.9
X73.05Y-88.9
X73.05Y-116.9
X73.1Y-72.6
X73.1Y-73.6
X73.1Y-100.6
X73.1Y-101.6
X73.1Y-128.6
X73.1Y-129.6
X73.25Y-65.45
X73.25Y-93.45
X73.25Y-121.45
X73.5Y-58.1
X73.5Y-86.1
X73.5Y-114.1
X73.95Y-60.9
X73.95Y-88.9
X73.95Y-116.9
X74.3Y-68.65
X74.3Y-96.65
X74.3Y-124.65
X74.4Y-58.1
X74.4Y-64.0
X74.4Y-86.1
X74.4Y-92.0
X74.4Y-114.1
X74.4Y-120.0
X74.85Y-60.9
X74.85Y-88.9
X74.85Y-116.9
X75.2Y-76.1
X75.2Y-104.1
X75.2Y-132.1
X75.3Y-58.1
X75.3Y-86.1
X75.3Y-114.1
X75.4Y-64.0
X75.4Y-92.0
X75.4Y-120.0
X75.5Y-68.4
X75.5Y-96.4
X75.5Y-124.4
X75.75Y-60.9
X75.75Y-88.9
X75.75Y-116.9
X76.1Y-71.0
X76.1Y-99.0
X76.1Y-127.0
X76.2Y-58.1
X76.2Y-76.1
X76.2Y-86.1
X76.2Y-104.1
X76.2Y-114.1
X76.2Y-132.1
X76.65Y-60.9
X76.65Y-88.9
X76.65Y-116.9
X76.9Y-65.15
X76.9Y-68.85
X76.9Y-71.0
X76.9Y-93.15
X76.9Y-96.85
X76.9Y-99.0
X76.9Y-121.15
X76.9Y-124.85
X76.9Y-127.0
X77.1Y-58.1
X77.1Y-86.1
X77.1Y-114.1
X77.55Y-60.9
X77.55Y-88.9
X77.55Y-116.9
X77.7Y-71.0
X77.7Y-75.0
X77.7Y-99.0
X77.7Y-103.0
X77.7Y-127.0
X77.7Y-131.0
X78.0Y-58.1
X78.0Y-86.1
X78.0Y-114.1
X78.45Y-60.9
X78.45Y-88.9
X78.45Y-116.9
X78.7Y-62.6
X78.7Y-90.6
X78.7Y-118.6
X78.75Y-63.8
X78.75Y-64.9
X78.75Y-91.8
X78.75Y-92.9
X78.75Y-119.8
X78.75Y-120.9
X78.9Y-58.1
X78.9Y-71.8
X78.9Y-74.2
X78.9Y-86.1
X78.9Y-99.8
X78.9Y-102.2
X78.9Y-114.1
X78.9Y-127.8
X78.9Y-130.2
X79.4Y-60.9
X79.4Y-62.6
X79.4Y-88.9
X79.4Y-90.6
X79.4Y-116.9
X79.4Y-118.6
X79.8Y-58.1
X79.8Y-86.1
X79.8Y-114.1
X80.15Y-62.6
X80.15Y-90.6
X80.15Y-118.6
X80.3Y-75.9
X80.3Y-103.9
X80.3Y-131.9
X81.2Y-71.2
X81.2Y-99.2
X81.2Y-127.2
X81.3Y-75.9
X81.3Y-103.9
X81.3Y-131.9
X81.35Y-63.8
X81.35Y-64.9
X81.35Y-91.8
X81.35Y-92.9
X81.35Y-119.8
X81.35Y-120.9
X81.5Y-67.0
X81.5Y-95.0
X81.5Y-123.0
X81.8Y-70.5
X81.8Y-98.5
X81.8Y-126.5
X82.5Y-71.2
X82.5Y-99.2
X82.5Y-127.2
X83.5Y-71.7
X83.5Y-74.3
X83.5Y-99.7
X83.5Y-102.3
X83.5Y-127.7
X83.5Y-130.3
X84.0Y-63.0
X84.0Y-76.0
X84.0Y-91.0
X84.0Y-104.0
X84.0Y-119.0
X84.0Y-132.0
X88.0Y-63.0
X88.0Y-76.0
X88.0Y-91.0
X88.0Y-104.0
X88.0Y-119.0
X88.0Y-132.0
X91.25Y-67.95
X91.25Y-95.95
X91.25Y-123.95
X92.2Y-58.1
X92.2Y-86.1
X92.2Y-114.1
X92.35Y-62.8
X92.35Y-90.8
X92.35Y-118.8
X92.4Y-68.8
X92.4Y-96.8
X92.4Y-124.8
X92.6Y-60.9
X92.6Y-88.9
X92.6Y-116.9
X93.1Y-58.1
X93.1Y-86.1
X93.1Y-114.1
X93.55Y-60.9
X93.55Y-65.0
X93.55Y-88.9
X93.55Y-93.0
X93.55Y-116.9
X93.55Y-121.0
X94.0Y-58.1
X94.0Y-72.6
X94.0Y-73.4
X94.0Y-86.1
X94.0Y-100.6
X94.0Y-101.4
X94.0Y-114.1
X94.0Y-128.6
X94.0Y-129.4
X94.45Y-60.9
X94.45Y-88.9
X94.45Y-116.9
X94.5Y-63.0
X94.5Y-91.0
X94.5Y-119.0
X94.7Y-65.15
X94.7Y-93.15
X94.7Y-121.15
X94.9Y-58.1
X94.9Y-86.1
X94.9Y-114.1
X95.35Y-60.9
X95.35Y-88.9
X95.35Y-116.9
X95.5Y-71.0
X95.5Y-99.0
X95.5Y-127.0
X95.8Y-58.1
X95.8Y-86.1
X95.8Y-114.1
X95.85Y-66.2
X95.85Y-68.85
X95.85Y-94.2
X95.85Y-96.85
X95.85Y-122.2
X95.85Y-124.85
X96.25Y-60.9
X96.25Y-88.9
X96.25Y-116.9
X96.5Y-76.0
X96.5Y-104.0
X96.5Y-132.0
X96.7Y-58.1
X96.7Y-86.1
X96.7Y-114.1
X96.9Y-66.75
X96.9Y-67.6
X96.9Y-94.75
X96.9Y-95.6
X96.9Y-122.75
X96.9Y-123.6
X97.0Y-65.55
X97.0Y-93.55
X97.0Y-121.55
X97.05Y-68.45
X97.05Y-96.45
X97.05Y-124.45
X97.15Y-60.9
X97.15Y-88.9
X97.15Y-116.9
X97.6Y-58.1
X97.6Y-86.1
X97.6Y-114.1
X98.05Y-60.9
X98.05Y-88.9
X98.05Y-116.9
X98.1Y-72.6
X98.1Y-73.6
X98.1Y-100.6
X98.1Y-101.6
X98.1Y-128.6
X98.1Y-129.6
X98.25Y-65.45
X98.25Y-93.45
X98.25Y-121.45
X98.5Y-58.1
X98.5Y-86.1
X98.5Y-114.1
X98.95Y-60.9
X98.95Y-88.9
X98.95Y-116.9
X99.3Y-68.65
X99.3Y-96.65
X99.3Y-124.65
X99.4Y-58.1
X99.4Y-64.0
X99.4Y-86.1
X99.4Y-92.0
X99.4Y-114.1
X99.4Y-120.0
X99.85Y-60.9
X99.85Y-88.9
X99.85Y-116.9
X100.2Y-76.1
X100.2Y-104.1
X100.2Y-132.1
X100.3Y-58.1
X100.3Y-86.1
X100.3Y-114.1
X100.4Y-64.0
X100.4Y-92.0
X100.4Y-120.0
X100.5Y-68.4
X100.5Y-96.4
X100.5Y-124.4
X100.75Y-60.9
X100.75Y-88.9
X100.75Y-116.9
X101.1Y-71.0
X101.1Y-99.0
X101.1Y-127.0
X101.2Y-58.1
X101.2Y-76.1
X101.2Y-86.1
X101.2Y-104.1
X101.2Y-114.1
X101.2Y-132.1
X101.65Y-60.9
X101.65Y-88.9
X101.65Y-116.9
X101.9Y-65.15
X101.9Y-68.85
X101.9Y-71.0
X101.9Y-93.15
X101.9Y-96.85
X101.9Y-99.0
X101.9Y-121.15
X101.9Y-124.85
X101.9Y-127.0
X102.1Y-58.1
X102.1Y-86.1
X102.1Y-114.1
X102.55Y-60.9
X102.55Y-88.9
X102.55Y-116.9
X102.7Y-71.0
X102.7Y-75.0
X102.7Y-99.0
X102.7Y-103.0
X102.7Y-127.0
X102.7Y-131.0
X103.0Y-58.1
X103.0Y-86.1
X103.0Y-114.1
X103.45Y-60.9
X103.45Y-88.9
X103.45Y-116.9
X103.7Y-62.6
X103.7Y-90.6
X103.7Y-118.6
X103.75Y-63.8
X103.75Y-64.9
X103.75Y-91.8
X103.75Y-92.9
X103.75Y-119.8
X103.75Y-120.9
X103.9Y-58.1
X103.9Y-71.8
X103.9Y-74.2
X103.9Y-86.1
X103.9Y-99.8
X103.9Y-102.2
X103.9Y-114.1
X103.9Y-127.8
X103.9Y-130.2
X104.4Y-60.9
X104.4Y-62.6
X104.4Y-88.9
X104.4Y-90.6
X104.4Y-116.9
X104.4Y-118.6
X104.8Y-58.1
X104.8Y-86.1
X104.8Y-114.1
X105.15Y-62.6
X105.15Y-90.6
X105.15Y-118.6
X105.3Y-75.9
X105.3Y-103.9
X105.3Y-131.9
X106.2Y-71.2
X106.2Y-99.2
X106.2Y-127.2
X106.3Y-75.9
X106.3Y-103.9
X106.3Y-131.9
X106.35Y-63.8
X106.35Y-64.9
X106.35Y-91.8
X106.35Y-92.9
X106.35Y-119.8
X106.35Y-120.9
X106.5Y-67.0
X106.5Y-95.0
X106.5Y-123.0
X106.8Y-70.5
X106.8Y-98.5
X106.8Y-126.5
X107.5Y-71.2
X107.5Y-99.2
X107.5Y-127.2
X108.5Y-71.7
X108.5Y-74.3
X108.5Y-99.7
X108.5Y-102.3
X108.5Y-127.7
X108.5Y-130.3
X109.0Y-63.0
X109.0Y-76.0
X109.0Y-91.0
X109.0Y-104.0
X109.0Y-119.0
X109.0Y-132.0
X113.0Y-63.0
X113.0Y-76.0
X113.0Y-91.0
X113.0Y-104.0
X113.0Y-119.0
X113.0Y-132.0
X116.25Y-67.95
X116.25Y-95.95
X116.25Y-123.95
X117.2Y-58.1
X117.2Y-86.1
X117.2Y-114.1
X117.35Y-62.8
X117.35Y-90.8
X117.35Y-118.8
X117.4Y-68.8
X117.4Y-96.8
X117.4Y-124.8
X117.6Y-60.9
X117.6Y-88.9
X117.6Y-116.9
X118.1Y-58.1
X118.1Y-86.1
X118.1Y-114.1
X118.55Y-60.9
X118.55Y-65.0
X118.55Y-88.9
X118.55Y-93.0
X118.55Y-116.9
X118.55Y-121.0
X119.0Y-58.1
X119.0Y-72.6
X119.0Y-73.4
X119.0Y-86.1
X119.0Y-100.6
X119.0Y-101.4
X119.0Y-114.1
X119.0Y-128.6
X119.0Y-129.4
X119.45Y-60.9
X119.45Y-88.9
X119.45Y-116.9
X119.5Y-63.0
X119.5Y-91.0
X119.5Y-119.0
X119.7Y-65.15
X119.7Y-93.15
X119.7Y-121.15
X119.9Y-58.1
X119.9Y-86.1
X119.9Y-114.1
X120.35Y-60.9
X120.35Y-88.9
X120.35Y-116.9
X120.5Y-71.0
X120.5Y-99.0
X120.5Y-127.0
X120.8Y-58.1
X120.8Y-86.1
X120.8Y-114.1
X120.85Y-66.2
X120.85Y-68.85
X120.85Y-94.2
X120.85Y-96.85
X120.85Y-122.2
X120.85Y-124.85
X121.25Y-60.9
X121.25Y-88.9
X121.25Y-116.9
X121.5Y-76.0
X121.5Y-104.0
X121.5Y-132.0
X121.7Y-58.1
X121.7Y-86.1
X121.7Y-114.1
X121.9Y-66.75
X121.9Y-67.6
X121.9Y-94.75
X121.9Y-95.6
X121.9Y-122.75
X121.9Y-123.6
X122.0Y-65.55
X122.0Y-93.55
X122.0Y-121.55
X122.05Y-68.45
X122.05Y-96.45
X122.05Y-124.45
X122.15Y-60.9
X122.15Y-88.9
X122.15Y-116.9
X122.6Y-58.1
X122.6Y-86.1
X122.6Y-114.1
X123.05Y-60.9
X123.05Y-88.9
X123.05Y-116.9
X123.1Y-72.6
X123.1Y-73.6
X123.1Y-100.6
X123.1Y-101.6
X123.1Y-128.6
X123.1Y-129.6
X123.25Y-65.45
X123.25Y-93.45
X123.25Y-121.45
X123.5Y-58.1
X123.5Y-86.1
X123.5Y-114.1
X123.95Y-60.9
X123.95Y-88.9
X123.95Y-116.9
X124.3Y-68.65
X124.3Y-96.65
X124.3Y-124.65
X124.4Y-58.1
X124.4Y-64.0
X124.4Y-86.1
X124.4Y-92.0
X124.4Y-114.1
X124.4Y-120.0
X124.85Y-60.9
X124.85Y-88.9
X124.85Y-116.9
X125.2Y-76.1
X125.2Y-104.1
X125.2Y-132.1
X125.3Y-58.1
X125.3Y-86.1
X125.3Y-114.1
X125.4Y-64.0
X125.4Y-92.0
X125.4Y-120.0
X125.5Y-68.4
X125.5Y-96.4
X125.5Y-124.4
X125.75Y-60.9
X125.75Y-88.9
X125.75Y-116.9
X126.1Y-71.0
X126.1Y-99.0
X126.1Y-127.0
X126.2Y-58.1
X126.2Y-76.1
X126.2Y-86.1
X126.2Y-104.1
X126.2Y-114.1
X126.2Y-132.1
X126.65Y-60.9
X126.65Y-88.9
X126.65Y-116.9
X126.9Y-65.15
X126.9Y-68.85
X126.9Y-71.0
X126.9Y-93.15
X126.9Y-96.85
X126.9Y-99.0
X126.9Y-121.15
X126.9Y-124.85
X126.9Y-127.0
X127.1Y-58.1
X127.1Y-86.1
X127.1Y-114.1
X127.55Y-60.9
X127.55Y-88.9
X127.55Y-116.9
X127.7Y-71.0
X127.7Y-75.0
X127.7Y-99.0
X127.7Y-103.0
X127.7Y-127.0
X127.7Y-131.0
X128.0Y-58.1
X128.0Y-86.1
X128.0Y-114.1
X128.45Y-60.9
X128.45Y-88.9
X128.45Y-116.9
X128.7Y-62.6
X128.7Y-90.6
X128.7Y-118.6
X128.75Y-63.8
X128.75Y-64.9
X128.75Y-91.8
X128.75Y-92.9
X128.75Y-119.8
X128.75Y-120.9
X128.9Y-58.1
X128.9Y-71.8
X128.9Y-74.2
X128.9Y-86.1
X128.9Y-99.8
X128.9Y-102.2
X128.9Y-114.1
X128.9Y-127.8
X128.9Y-130.2
X129.4Y-60.9
X129.4Y-62.6
X129.4Y-88.9
X129.4Y-90.6
X129.4Y-116.9
X129.4Y-118.6
X129.8Y-58.1
X129.8Y-86.1
X129.8Y-114.1
X130.15Y-62.6
X130.15Y-90.6
X130.15Y-118.6
X130.3Y-75.9
X130.3Y-103.9
X130.3Y-131.9
X131.2Y-71.2
X131.2Y-99.2
X131.2Y-127.2
X131.3Y-75.9
X131.3Y-103.9
X131.3Y-131.9
X131.35Y-63.8
X131.35Y-64.9
X131.35Y-91.8
X131.35Y-92.9
X131.35Y-119.8
X131.35Y-120.9
X131.5Y-67.0
X131.5Y-95.0
X131.5Y-123.0
X131.8Y-70.5
X131.8Y-98.5
X131.8Y-126.5
X132.5Y-71.2
X132.5Y-99.2
X132.5Y-127.2
X133.5Y-71.7
X133.5Y-74.3
X133.5Y-99.7
X133.5Y-102.3
X133.5Y-127.7
X133.5Y-130.3
X134.0Y-63.0
X134.0Y-76.0
X134.0Y-91.0
X134.0Y-104.0
X134.0Y-119.0
X134.0Y-132.0
X138.0Y-63.0
X138.0Y-76.0
X138.0Y-91.0
X138.0Y-104.0
X138.0Y-119.0
X138.0Y-132.0
X141.25Y-67.95
X141.25Y-95.95
X141.25Y-123.95
X142.2Y-58.1
X142.2Y-86.1
X142.2Y-114.1
X142.35Y-62.8
X142.35Y-90.8
X142.35Y-118.8
X142.4Y-68.8
X142.4Y-96.8
X142.4Y-124.8
X142.6Y-60.9
X142.6Y-88.9
X142.6Y-116.9
X143.1Y-58.1
X143.1Y-86.1
X143.1Y-114.1
X143.55Y-60.9
X143.55Y-65.0
X143.55Y-88.9
X143.55Y-93.0
X143.55Y-116.9
X143.55Y-121.0
X144.0Y-58.1
X144.0Y-72.6
X144.0Y-73.4
X144.0Y-86.1
X144.0Y-100.6
X144.0Y-101.4
X144.0Y-114.1
X144.0Y-128.6
X144.0Y-129.4
X144.45Y-60.9
X144.45Y-88.9
X144.45Y-116.9
X144.5Y-63.0
X144.5Y-91.0
X144.5Y-119.0
X144.7Y-65.15
X144.7Y-93.15
X144.7Y-121.15
X144.9Y-58.1
X144.9Y-86.1
X144.9Y-114.1
X145.35Y-60.9
X145.35Y-88.9
X145.35Y-116.9
X145.5Y-71.0
X145.5Y-99.0
X145.5Y-127.0
X145.8Y-58.1
X145.8Y-86.1
X145.8Y-114.1
X145.85Y-66.2
X145.85Y-68.85
X145.85Y-94.2
X145.85Y-96.85
X145.85Y-122.2
X145.85Y-124.85
X146.25Y-60.9
X146.25Y-88.9
X146.25Y-116.9
X146.5Y-76.0
X146.5Y-104.0
X146.5Y-132.0
X146.7Y-58.1
X146.7Y-86.1
X146.7Y-114.1
X146.9Y-66.75
X146.9Y-67.6
X146.9Y-94.75
X146.9Y-95.6
X146.9Y-122.75
X146.9Y-123.6
X147.0Y-65.55
X147.0Y-93.55
X147.0Y-121.55
X147.05Y-68.45
X147.05Y-96.45
X147.05Y-124.45
X147.15Y-60.9
X147.15Y-88.9
X147.15Y-116.9
X147.6Y-58.1
X147.6Y-86.1
X147.6Y-114.1
X148.05Y-60.9
X148.05Y-88.9
X148.05Y-116.9
X148.1Y-72.6
X148.1Y-73.6
X148.1Y-100.6
X148.1Y-101.6
X148.1Y-128.6
X148.1Y-129.6
X148.25Y-65.45
X148.25Y-93.45
X148.25Y-121.45
X148.5Y-58.1
X148.5Y-86.1
X148.5Y-114.1
X148.95Y-60.9
X148.95Y-88.9
X148.95Y-116.9
X149.3Y-68.65
X149.3Y-96.65
X149.3Y-124.65
X149.4Y-58.1
X149.4Y-64.0
X149.4Y-86.1
X149.4Y-92.0
X149.4Y-114.1
X149.4Y-120.0
X149.85Y-60.9
X149.85Y-88.9
X149.85Y-116.9
X150.2Y-76.1
X150.2Y-104.1
X150.2Y-132.1
X150.3Y-58.1
X150.3Y-86.1
X150.3Y-114.1
X150.4Y-64.0
X150.4Y-92.0
X150.4Y-120.0
X150.5Y-68.4
X150.5Y-96.4
X150.5Y-124.4
X150.75Y-60.9
X150.75Y-88.9
X150.75Y-116.9
X151.1Y-71.0
X151.1Y-99.0
X151.1Y-127.0
X151.2Y-58.1
X151.2Y-76.1
X151.2Y-86.1
X151.2Y-104.1
X151.2Y-114.1
X151.2Y-132.1
X151.65Y-60.9
X151.65Y-88.9
X151.65Y-116.9
X151.9Y-65.15
X151.9Y-68.85
X151.9Y-71.0
X151.9Y-93.15
X151.9Y-96.85
X151.9Y-99.0
X151.9Y-121.15
X151.9Y-124.85
X151.9Y-127.0
X152.1Y-58.1
X152.1Y-86.1
X152.1Y-114.1
X152.55Y-60.9
X152.55Y-88.9
X152.55Y-116.9
X152.7Y-71.0
X152.7Y-75.0
X152.7Y-99.0
X152.7Y-103.0
X152.7Y-127.0
X152.7Y-131.0
X153.0Y-58.1
X153.0Y-86.1
X153.0Y-114.1
X153.45Y-60.9
X153.45Y-88.9
X153.45Y-116.9
X153.7Y-62.6
X153.7Y-90.6
X153.7Y-118.6
X153.75Y-63.8
X153.75Y-64.9
X153.75Y-91.8
X153.75Y-92.9
X153.75Y-119.8
X153.75Y-120.9
X153.9Y-58.1
X153.9Y-71.8
X153.9Y-74.2
X153.9Y-86.1
X153.9Y-99.8
X153.9Y-102.2
X153.9Y-114.1
X153.9Y-127.8
X153.9Y-130.2
X154.4Y-60.9
X154.4Y-62.6
X154.4Y-88.9
X154.4Y-90.6
X154.4Y-116.9
X154.4Y-118.6
X154.8Y-58.1
X154.8Y-86.1
X154.8Y-114.1
X155.15Y-62.6
X155.15Y-90.6
X155.15Y-118.6
X155.3Y-75.9
X155.3Y-103.9
X155.3Y-131.9
X156.2Y-71.2
X156.2Y-99.2
X156.2Y-127.2
X156.3Y-75.9
X156.3Y-103.9
X156.3Y-131.9
X156.35Y-63.8
X156.35Y-64.9
X156.35Y-91.8
X156.35Y-92.9
X156.35Y-119.8
X156.35Y-120.9
X156.5Y-67.0
X156.5Y-95.0
X156.5Y-123.0
X156.8Y-70.5
X156.8Y-98.5
X156.8Y-126.5
X157.5Y-71.2
X157.5Y-99.2
X157.5Y-127.2
X158.5Y-71.7
X158.5Y-74.3
X158.5Y-99.7
X158.5Y-102.3
X158.5Y-127.7
X158.5Y-130.3
X159.0Y-63.0
X159.0Y-76.0
X159.0Y-91.0
X159.0Y-104.0
X159.0Y-119.0
X159.0Y-132.0
T2
X63.35Y-65.585
X63.35Y-68.125
X63.35Y-70.665
X63.35Y-73.205
X63.35Y-93.585
X63.35Y-96.125
X63.35Y-98.665
X63.35Y-101.205
X63.35Y-121.585
X63.35Y-124.125
X63.35Y-126.665
X63.35Y-129.205
X88.35Y-65.585
X88.35Y-68.125
X88.35Y-70.665
X88.35Y-73.205
X88.35Y-93.585
X88.35Y-96.125
X88.35Y-98.665
X88.35Y-101.205
X88.35Y-121.585
X88.35Y-124.125
X88.35Y-126.665
X88.35Y-129.205
X113.35Y-65.585
X113.35Y-68.125
X113.35Y-70.665
X113.35Y-73.205
X113.35Y-93.585
X113.35Y-96.125
X113.35Y-98.665
X113.35Y-101.205
X113.35Y-121.585
X113.35Y-124.125
X113.35Y-126.665
X113.35Y-129.205
X138.35Y-65.585
X138.35Y-68.125
X138.35Y-70.665
X138.35Y-73.205
X138.35Y-93.585
X138.35Y-96.125
X138.35Y-98.665
X138.35Y-101.205
X138.35Y-121.585
X138.35Y-124.125
X138.35Y-126.665
X138.35Y-129.205
M30
