M48
; DRILL file KiCad 10.0.3 date 2026-09-19T11:40:29
; FORMAT={-:-/ absolute / metric / decimal}
; #@! TF.CreationDate,2026-09-19T11:40:29+09:00
; #@! TF.GenerationSoftware,Kicad,Pcbnew,10.0.3
; #@! TF.FileFunction,NonPlated,1,4,NPTH
FMAT,2
METRIC
; #@! TA.AperFunction,NonPlated,NPTH,ComponentDrill
T1C2.000
; #@! TA.AperFunction,NonPlated,NPTH,ComponentDrill
T2C2.050
%
G90
G05
T1
X60.0Y-50.0
X60.0Y-140.0
X162.0Y-50.0
X162.0Y-140.0
T2
X65.25Y-59.5
X65.25Y-87.5
X65.25Y-115.5
X81.75Y-59.5
X81.75Y-87.5
X81.75Y-115.5
X90.25Y-59.5
X90.25Y-87.5
X90.25Y-115.5
X106.75Y-59.5
X106.75Y-87.5
X106.75Y-115.5
X115.25Y-59.5
X115.25Y-87.5
X115.25Y-115.5
X131.75Y-59.5
X131.75Y-87.5
X131.75Y-115.5
X140.25Y-59.5
X140.25Y-87.5
X140.25Y-115.5
X156.75Y-59.5
X156.75Y-87.5
X156.75Y-115.5
M30
