G04 #@! TF.GenerationSoftware,KiCad,Pcbnew,10.0.3*
G04 #@! TF.CreationDate,2026-09-19T11:40:26+09:00*
G04 #@! TF.ProjectId,ai05-env-sensors,61693035-2d65-46e7-962d-73656e736f72,rev?*
G04 #@! TF.SameCoordinates,Original*
G04 #@! TF.FileFunction,Soldermask,Top*
G04 #@! TF.FilePolarity,Negative*
%FSLAX46Y46*%
G04 Gerber Fmt 4.6, Leading zero omitted, Abs format (unit mm)*
G04 Created by KiCad (PCBNEW 10.0.3) date 2026-09-19 11:40:26*
%MOMM*%
%LPD*%
G01*
G04 APERTURE LIST*
G04 Aperture macros list*
%AMRoundRect*
0 Rectangle with rounded corners*
0 $1 Rounding radius*
0 $2 $3 $4 $5 $6 $7 $8 $9 X,Y pos of 4 corners*
0 Add a 4 corners polygon primitive as box body*
4,1,4,$2,$3,$4,$5,$6,$7,$8,$9,$2,$3,0*
0 Add four circle primitives for the rounded corners*
1,1,$1+$1,$2,$3*
1,1,$1+$1,$4,$5*
1,1,$1+$1,$6,$7*
1,1,$1+$1,$8,$9*
0 Add four rect primitives between the rounded corners*
20,1,$1+$1,$2,$3,$4,$5,0*
20,1,$1+$1,$4,$5,$6,$7,0*
20,1,$1+$1,$6,$7,$8,$9,0*
20,1,$1+$1,$8,$9,$2,$3,0*%
%AMFreePoly0*
4,1,43,0.052099,0.920729,0.127746,0.900460,0.139805,0.895465,0.207628,0.856307,0.217983,0.848361,0.273361,0.792983,0.281307,0.782628,0.320465,0.714805,0.325460,0.702746,0.345729,0.627099,0.347433,0.614158,0.347433,0.535842,0.345729,0.522901,0.325460,0.447254,0.320465,0.435195,0.281307,0.367372,0.275000,0.359152,0.275000,-0.575000,0.260355,-0.610355,0.225000,-0.625000,
-0.225000,-0.625000,-0.260355,-0.610355,-0.275000,-0.575000,-0.275000,0.359152,-0.281307,0.367372,-0.320465,0.435195,-0.325460,0.447254,-0.345729,0.522901,-0.347433,0.535842,-0.347433,0.614158,-0.345729,0.627099,-0.325460,0.702746,-0.320465,0.714805,-0.281307,0.782628,-0.273361,0.792983,-0.217983,0.848361,-0.207628,0.856307,-0.139805,0.895465,-0.127746,0.900460,-0.052099,0.920729,
-0.039158,0.922433,0.039158,0.922433,0.052099,0.920729,0.052099,0.920729,$1*%
%AMFreePoly1*
4,1,14,0.660355,0.885355,0.675000,0.850000,0.675000,-0.850000,0.660355,-0.885355,0.625000,-0.900000,-0.625000,-0.900000,-0.660355,-0.885355,-0.675000,-0.850000,-0.675000,0.550000,-0.660355,0.585355,-0.360355,0.885355,-0.325000,0.900000,0.625000,0.900000,0.660355,0.885355,0.660355,0.885355,$1*%
G04 Aperture macros list end*
%ADD10C,0.150000*%
%ADD11C,0.100000*%
%ADD12RoundRect,0.050000X0.175000X-0.250000X0.175000X0.250000X-0.175000X0.250000X-0.175000X-0.250000X0*%
%ADD13RoundRect,0.100000X-0.200000X-0.200000X0.200000X-0.200000X0.200000X0.200000X-0.200000X0.200000X0*%
%ADD14RoundRect,0.050000X-0.187500X-0.175000X0.187500X-0.175000X0.187500X0.175000X-0.187500X0.175000X0*%
%ADD15RoundRect,0.050000X0.175000X-0.187500X0.175000X0.187500X-0.175000X0.187500X-0.175000X-0.187500X0*%
%ADD16RoundRect,0.160000X0.160000X0.210000X-0.160000X0.210000X-0.160000X-0.210000X0.160000X-0.210000X0*%
%ADD17RoundRect,0.165000X0.195000X-0.165000X0.195000X0.165000X-0.195000X0.165000X-0.195000X-0.165000X0*%
%ADD18C,2.590000*%
%ADD19RoundRect,0.050000X-0.450000X-0.725000X0.450000X-0.725000X0.450000X0.725000X-0.450000X0.725000X0*%
%ADD20FreePoly0,0.000000*%
%ADD21FreePoly0,180.000000*%
%ADD22RoundRect,0.250000X-0.275000X0.250000X-0.275000X-0.250000X0.275000X-0.250000X0.275000X0.250000X0*%
%ADD23RoundRect,0.165000X-0.195000X0.165000X-0.195000X-0.165000X0.195000X-0.165000X0.195000X0.165000X0*%
%ADD24C,2.000000*%
%ADD25RoundRect,0.050000X-0.275000X-0.200000X0.275000X-0.200000X0.275000X0.200000X-0.275000X0.200000X0*%
%ADD26FreePoly1,0.000000*%
%ADD27RoundRect,0.160000X0.210000X-0.160000X0.210000X0.160000X-0.210000X0.160000X-0.210000X-0.160000X0*%
%ADD28RoundRect,0.165000X0.165000X0.195000X-0.165000X0.195000X-0.165000X-0.195000X0.165000X-0.195000X0*%
%ADD29RoundRect,0.050000X-0.250000X-0.150000X0.250000X-0.150000X0.250000X0.150000X-0.250000X0.150000X0*%
%ADD30C,2.100000*%
%ADD31RoundRect,0.264706X1.285294X0.635294X-1.285294X0.635294X-1.285294X-0.635294X1.285294X-0.635294X0*%
%ADD32C,0.660000*%
%ADD33C,0.600000*%
G04 APERTURE END LIST*
D10*
X65250000Y-58300000D02*
X66550000Y-58300000D01*
X66550000Y-60700000D01*
X65250000Y-60700000D01*
X65250000Y-58300000D01*
G36*
X66550000Y-60700000D02*
G01*
X65250000Y-60700000D01*
X65250000Y-58300000D01*
X66550000Y-58300000D01*
X66550000Y-60700000D01*
G37*
X65250000Y-86300000D02*
X66550000Y-86300000D01*
X66550000Y-88700000D01*
X65250000Y-88700000D01*
X65250000Y-86300000D01*
G36*
X66550000Y-88700000D02*
G01*
X65250000Y-88700000D01*
X65250000Y-86300000D01*
X66550000Y-86300000D01*
X66550000Y-88700000D01*
G37*
X65250000Y-114300000D02*
X66550000Y-114300000D01*
X66550000Y-116700000D01*
X65250000Y-116700000D01*
X65250000Y-114300000D01*
G36*
X66550000Y-116700000D02*
G01*
X65250000Y-116700000D01*
X65250000Y-114300000D01*
X66550000Y-114300000D01*
X66550000Y-116700000D01*
G37*
X66550000Y-60900000D02*
X80450000Y-60900000D01*
X80450000Y-58000000D01*
X66550000Y-58000000D01*
X66550000Y-60900000D01*
G36*
X80450000Y-60900000D02*
G01*
X66550000Y-60900000D01*
X66550000Y-58000000D01*
X80450000Y-58000000D01*
X80450000Y-60900000D01*
G37*
X66550000Y-88900000D02*
X80450000Y-88900000D01*
X80450000Y-86000000D01*
X66550000Y-86000000D01*
X66550000Y-88900000D01*
G36*
X80450000Y-88900000D02*
G01*
X66550000Y-88900000D01*
X66550000Y-86000000D01*
X80450000Y-86000000D01*
X80450000Y-88900000D01*
G37*
X66550000Y-116900000D02*
X80450000Y-116900000D01*
X80450000Y-114000000D01*
X66550000Y-114000000D01*
X66550000Y-116900000D01*
G36*
X80450000Y-116900000D02*
G01*
X66550000Y-116900000D01*
X66550000Y-114000000D01*
X80450000Y-114000000D01*
X80450000Y-116900000D01*
G37*
X80450000Y-58300000D02*
X81750000Y-58300000D01*
X81750000Y-60700000D01*
X80450000Y-60700000D01*
X80450000Y-58300000D01*
G36*
X81750000Y-60700000D02*
G01*
X80450000Y-60700000D01*
X80450000Y-58300000D01*
X81750000Y-58300000D01*
X81750000Y-60700000D01*
G37*
X80450000Y-86300000D02*
X81750000Y-86300000D01*
X81750000Y-88700000D01*
X80450000Y-88700000D01*
X80450000Y-86300000D01*
G36*
X81750000Y-88700000D02*
G01*
X80450000Y-88700000D01*
X80450000Y-86300000D01*
X81750000Y-86300000D01*
X81750000Y-88700000D01*
G37*
X80450000Y-114300000D02*
X81750000Y-114300000D01*
X81750000Y-116700000D01*
X80450000Y-116700000D01*
X80450000Y-114300000D01*
G36*
X81750000Y-116700000D02*
G01*
X80450000Y-116700000D01*
X80450000Y-114300000D01*
X81750000Y-114300000D01*
X81750000Y-116700000D01*
G37*
X90250000Y-58300000D02*
X91550000Y-58300000D01*
X91550000Y-60700000D01*
X90250000Y-60700000D01*
X90250000Y-58300000D01*
G36*
X91550000Y-60700000D02*
G01*
X90250000Y-60700000D01*
X90250000Y-58300000D01*
X91550000Y-58300000D01*
X91550000Y-60700000D01*
G37*
X90250000Y-86300000D02*
X91550000Y-86300000D01*
X91550000Y-88700000D01*
X90250000Y-88700000D01*
X90250000Y-86300000D01*
G36*
X91550000Y-88700000D02*
G01*
X90250000Y-88700000D01*
X90250000Y-86300000D01*
X91550000Y-86300000D01*
X91550000Y-88700000D01*
G37*
X90250000Y-114300000D02*
X91550000Y-114300000D01*
X91550000Y-116700000D01*
X90250000Y-116700000D01*
X90250000Y-114300000D01*
G36*
X91550000Y-116700000D02*
G01*
X90250000Y-116700000D01*
X90250000Y-114300000D01*
X91550000Y-114300000D01*
X91550000Y-116700000D01*
G37*
X91550000Y-60900000D02*
X105450000Y-60900000D01*
X105450000Y-58000000D01*
X91550000Y-58000000D01*
X91550000Y-60900000D01*
G36*
X105450000Y-60900000D02*
G01*
X91550000Y-60900000D01*
X91550000Y-58000000D01*
X105450000Y-58000000D01*
X105450000Y-60900000D01*
G37*
X91550000Y-88900000D02*
X105450000Y-88900000D01*
X105450000Y-86000000D01*
X91550000Y-86000000D01*
X91550000Y-88900000D01*
G36*
X105450000Y-88900000D02*
G01*
X91550000Y-88900000D01*
X91550000Y-86000000D01*
X105450000Y-86000000D01*
X105450000Y-88900000D01*
G37*
X91550000Y-116900000D02*
X105450000Y-116900000D01*
X105450000Y-114000000D01*
X91550000Y-114000000D01*
X91550000Y-116900000D01*
G36*
X105450000Y-116900000D02*
G01*
X91550000Y-116900000D01*
X91550000Y-114000000D01*
X105450000Y-114000000D01*
X105450000Y-116900000D01*
G37*
X105450000Y-58300000D02*
X106750000Y-58300000D01*
X106750000Y-60700000D01*
X105450000Y-60700000D01*
X105450000Y-58300000D01*
G36*
X106750000Y-60700000D02*
G01*
X105450000Y-60700000D01*
X105450000Y-58300000D01*
X106750000Y-58300000D01*
X106750000Y-60700000D01*
G37*
X105450000Y-86300000D02*
X106750000Y-86300000D01*
X106750000Y-88700000D01*
X105450000Y-88700000D01*
X105450000Y-86300000D01*
G36*
X106750000Y-88700000D02*
G01*
X105450000Y-88700000D01*
X105450000Y-86300000D01*
X106750000Y-86300000D01*
X106750000Y-88700000D01*
G37*
X105450000Y-114300000D02*
X106750000Y-114300000D01*
X106750000Y-116700000D01*
X105450000Y-116700000D01*
X105450000Y-114300000D01*
G36*
X106750000Y-116700000D02*
G01*
X105450000Y-116700000D01*
X105450000Y-114300000D01*
X106750000Y-114300000D01*
X106750000Y-116700000D01*
G37*
X115250000Y-58300000D02*
X116550000Y-58300000D01*
X116550000Y-60700000D01*
X115250000Y-60700000D01*
X115250000Y-58300000D01*
G36*
X116550000Y-60700000D02*
G01*
X115250000Y-60700000D01*
X115250000Y-58300000D01*
X116550000Y-58300000D01*
X116550000Y-60700000D01*
G37*
X115250000Y-86300000D02*
X116550000Y-86300000D01*
X116550000Y-88700000D01*
X115250000Y-88700000D01*
X115250000Y-86300000D01*
G36*
X116550000Y-88700000D02*
G01*
X115250000Y-88700000D01*
X115250000Y-86300000D01*
X116550000Y-86300000D01*
X116550000Y-88700000D01*
G37*
X115250000Y-114300000D02*
X116550000Y-114300000D01*
X116550000Y-116700000D01*
X115250000Y-116700000D01*
X115250000Y-114300000D01*
G36*
X116550000Y-116700000D02*
G01*
X115250000Y-116700000D01*
X115250000Y-114300000D01*
X116550000Y-114300000D01*
X116550000Y-116700000D01*
G37*
X116550000Y-60900000D02*
X130450000Y-60900000D01*
X130450000Y-58000000D01*
X116550000Y-58000000D01*
X116550000Y-60900000D01*
G36*
X130450000Y-60900000D02*
G01*
X116550000Y-60900000D01*
X116550000Y-58000000D01*
X130450000Y-58000000D01*
X130450000Y-60900000D01*
G37*
X116550000Y-88900000D02*
X130450000Y-88900000D01*
X130450000Y-86000000D01*
X116550000Y-86000000D01*
X116550000Y-88900000D01*
G36*
X130450000Y-88900000D02*
G01*
X116550000Y-88900000D01*
X116550000Y-86000000D01*
X130450000Y-86000000D01*
X130450000Y-88900000D01*
G37*
X116550000Y-116900000D02*
X130450000Y-116900000D01*
X130450000Y-114000000D01*
X116550000Y-114000000D01*
X116550000Y-116900000D01*
G36*
X130450000Y-116900000D02*
G01*
X116550000Y-116900000D01*
X116550000Y-114000000D01*
X130450000Y-114000000D01*
X130450000Y-116900000D01*
G37*
X130450000Y-58300000D02*
X131750000Y-58300000D01*
X131750000Y-60700000D01*
X130450000Y-60700000D01*
X130450000Y-58300000D01*
G36*
X131750000Y-60700000D02*
G01*
X130450000Y-60700000D01*
X130450000Y-58300000D01*
X131750000Y-58300000D01*
X131750000Y-60700000D01*
G37*
X130450000Y-86300000D02*
X131750000Y-86300000D01*
X131750000Y-88700000D01*
X130450000Y-88700000D01*
X130450000Y-86300000D01*
G36*
X131750000Y-88700000D02*
G01*
X130450000Y-88700000D01*
X130450000Y-86300000D01*
X131750000Y-86300000D01*
X131750000Y-88700000D01*
G37*
X130450000Y-114300000D02*
X131750000Y-114300000D01*
X131750000Y-116700000D01*
X130450000Y-116700000D01*
X130450000Y-114300000D01*
G36*
X131750000Y-116700000D02*
G01*
X130450000Y-116700000D01*
X130450000Y-114300000D01*
X131750000Y-114300000D01*
X131750000Y-116700000D01*
G37*
X140250000Y-58300000D02*
X141550000Y-58300000D01*
X141550000Y-60700000D01*
X140250000Y-60700000D01*
X140250000Y-58300000D01*
G36*
X141550000Y-60700000D02*
G01*
X140250000Y-60700000D01*
X140250000Y-58300000D01*
X141550000Y-58300000D01*
X141550000Y-60700000D01*
G37*
X140250000Y-86300000D02*
X141550000Y-86300000D01*
X141550000Y-88700000D01*
X140250000Y-88700000D01*
X140250000Y-86300000D01*
G36*
X141550000Y-88700000D02*
G01*
X140250000Y-88700000D01*
X140250000Y-86300000D01*
X141550000Y-86300000D01*
X141550000Y-88700000D01*
G37*
X140250000Y-114300000D02*
X141550000Y-114300000D01*
X141550000Y-116700000D01*
X140250000Y-116700000D01*
X140250000Y-114300000D01*
G36*
X141550000Y-116700000D02*
G01*
X140250000Y-116700000D01*
X140250000Y-114300000D01*
X141550000Y-114300000D01*
X141550000Y-116700000D01*
G37*
X141550000Y-60900000D02*
X155450000Y-60900000D01*
X155450000Y-58000000D01*
X141550000Y-58000000D01*
X141550000Y-60900000D01*
G36*
X155450000Y-60900000D02*
G01*
X141550000Y-60900000D01*
X141550000Y-58000000D01*
X155450000Y-58000000D01*
X155450000Y-60900000D01*
G37*
X141550000Y-88900000D02*
X155450000Y-88900000D01*
X155450000Y-86000000D01*
X141550000Y-86000000D01*
X141550000Y-88900000D01*
G36*
X155450000Y-88900000D02*
G01*
X141550000Y-88900000D01*
X141550000Y-86000000D01*
X155450000Y-86000000D01*
X155450000Y-88900000D01*
G37*
X141550000Y-116900000D02*
X155450000Y-116900000D01*
X155450000Y-114000000D01*
X141550000Y-114000000D01*
X141550000Y-116900000D01*
G36*
X155450000Y-116900000D02*
G01*
X141550000Y-116900000D01*
X141550000Y-114000000D01*
X155450000Y-114000000D01*
X155450000Y-116900000D01*
G37*
X155450000Y-58300000D02*
X156750000Y-58300000D01*
X156750000Y-60700000D01*
X155450000Y-60700000D01*
X155450000Y-58300000D01*
G36*
X156750000Y-60700000D02*
G01*
X155450000Y-60700000D01*
X155450000Y-58300000D01*
X156750000Y-58300000D01*
X156750000Y-60700000D01*
G37*
X155450000Y-86300000D02*
X156750000Y-86300000D01*
X156750000Y-88700000D01*
X155450000Y-88700000D01*
X155450000Y-86300000D01*
G36*
X156750000Y-88700000D02*
G01*
X155450000Y-88700000D01*
X155450000Y-86300000D01*
X156750000Y-86300000D01*
X156750000Y-88700000D01*
G37*
X155450000Y-114300000D02*
X156750000Y-114300000D01*
X156750000Y-116700000D01*
X155450000Y-116700000D01*
X155450000Y-114300000D01*
G36*
X156750000Y-116700000D02*
G01*
X155450000Y-116700000D01*
X155450000Y-114300000D01*
X156750000Y-114300000D01*
X156750000Y-116700000D01*
G37*
D11*
X83500000Y-48000000D02*
X138500000Y-48000000D01*
X138500000Y-52000000D01*
X83500000Y-52000000D01*
X83500000Y-48000000D01*
G36*
X83500000Y-48000000D02*
G01*
X138500000Y-48000000D01*
X138500000Y-52000000D01*
X83500000Y-52000000D01*
X83500000Y-48000000D01*
G37*
D12*
X155525000Y-99975000D03*
X156175000Y-99975000D03*
X156825000Y-99975000D03*
X157475000Y-99975000D03*
X157475000Y-102025000D03*
X156825000Y-102025000D03*
X156175000Y-102025000D03*
X155525000Y-102025000D03*
D13*
X75300000Y-127800000D03*
X76100000Y-127800000D03*
X76900000Y-127800000D03*
X77700000Y-127800000D03*
X77700000Y-130200000D03*
X76900000Y-130200000D03*
X76100000Y-130200000D03*
X75300000Y-130200000D03*
D14*
X147737500Y-94250000D03*
X147737500Y-94750000D03*
X147737500Y-95250000D03*
X147737500Y-95750000D03*
D15*
X148250000Y-95762500D03*
X148750000Y-95762500D03*
D14*
X149262500Y-95750000D03*
X149262500Y-95250000D03*
X149262500Y-94750000D03*
X149262500Y-94250000D03*
D15*
X148750000Y-94237500D03*
X148250000Y-94237500D03*
D16*
X105560000Y-64900000D03*
X104540000Y-64900000D03*
D17*
X100500000Y-67480000D03*
X100500000Y-66520000D03*
D18*
X115250000Y-115500000D03*
X131750000Y-115500000D03*
D19*
X117425000Y-116475000D03*
D20*
X117200000Y-114675000D03*
D21*
X118550000Y-116325000D03*
D20*
X118100000Y-114675000D03*
D21*
X119450000Y-116325000D03*
D20*
X119000000Y-114675000D03*
D21*
X120350000Y-116325000D03*
D20*
X119900000Y-114675000D03*
D21*
X121250000Y-116325000D03*
D20*
X120800000Y-114675000D03*
D21*
X122150000Y-116325000D03*
D20*
X121700000Y-114675000D03*
D21*
X123050000Y-116325000D03*
D20*
X122600000Y-114675000D03*
D21*
X123950000Y-116325000D03*
D20*
X123500000Y-114675000D03*
D21*
X124850000Y-116325000D03*
D20*
X124400000Y-114675000D03*
D21*
X125750000Y-116325000D03*
D20*
X125300000Y-114675000D03*
D21*
X126650000Y-116325000D03*
D20*
X126200000Y-114675000D03*
D21*
X127550000Y-116325000D03*
D20*
X127100000Y-114675000D03*
D21*
X128450000Y-116325000D03*
D20*
X128000000Y-114675000D03*
D19*
X129575000Y-116475000D03*
D20*
X128900000Y-114675000D03*
X129800000Y-114675000D03*
D18*
X90250000Y-59500000D03*
X106750000Y-59500000D03*
D19*
X92425000Y-60475000D03*
D20*
X92200000Y-58675000D03*
D21*
X93550000Y-60325000D03*
D20*
X93100000Y-58675000D03*
D21*
X94450000Y-60325000D03*
D20*
X94000000Y-58675000D03*
D21*
X95350000Y-60325000D03*
D20*
X94900000Y-58675000D03*
D21*
X96250000Y-60325000D03*
D20*
X95800000Y-58675000D03*
D21*
X97150000Y-60325000D03*
D20*
X96700000Y-58675000D03*
D21*
X98050000Y-60325000D03*
D20*
X97600000Y-58675000D03*
D21*
X98950000Y-60325000D03*
D20*
X98500000Y-58675000D03*
D21*
X99850000Y-60325000D03*
D20*
X99400000Y-58675000D03*
D21*
X100750000Y-60325000D03*
D20*
X100300000Y-58675000D03*
D21*
X101650000Y-60325000D03*
D20*
X101200000Y-58675000D03*
D21*
X102550000Y-60325000D03*
D20*
X102100000Y-58675000D03*
D21*
X103450000Y-60325000D03*
D20*
X103000000Y-58675000D03*
D19*
X104575000Y-60475000D03*
D20*
X103900000Y-58675000D03*
X104800000Y-58675000D03*
D22*
X126900000Y-66225000D03*
X126900000Y-67775000D03*
D13*
X125300000Y-99800000D03*
X126100000Y-99800000D03*
X126900000Y-99800000D03*
X127700000Y-99800000D03*
X127700000Y-102200000D03*
X126900000Y-102200000D03*
X126100000Y-102200000D03*
X125300000Y-102200000D03*
D23*
X147300000Y-72620000D03*
X147300000Y-73580000D03*
D24*
X157000000Y-50000000D03*
D25*
X117400000Y-122200000D03*
X117400000Y-123000000D03*
X117400000Y-123800000D03*
X119700000Y-123800000D03*
X119700000Y-123000000D03*
X119700000Y-122200000D03*
D26*
X118550000Y-123000000D03*
D27*
X142350000Y-64720000D03*
X142350000Y-63700000D03*
D17*
X141250000Y-95100000D03*
X141250000Y-94140000D03*
D13*
X125300000Y-71800000D03*
X126100000Y-71800000D03*
X126900000Y-71800000D03*
X127700000Y-71800000D03*
X127700000Y-74200000D03*
X126900000Y-74200000D03*
X126100000Y-74200000D03*
X125300000Y-74200000D03*
D22*
X151900000Y-66225000D03*
X151900000Y-67775000D03*
D28*
X151180000Y-131300000D03*
X150220000Y-131300000D03*
D17*
X91250000Y-95100000D03*
X91250000Y-94140000D03*
D14*
X72737500Y-66250000D03*
X72737500Y-66750000D03*
X72737500Y-67250000D03*
X72737500Y-67750000D03*
D15*
X73250000Y-67762500D03*
X73750000Y-67762500D03*
D14*
X74262500Y-67750000D03*
X74262500Y-67250000D03*
X74262500Y-66750000D03*
X74262500Y-66250000D03*
D15*
X73750000Y-66237500D03*
X73250000Y-66237500D03*
D16*
X130560000Y-92900000D03*
X129540000Y-92900000D03*
D22*
X151900000Y-122225000D03*
X151900000Y-123775000D03*
D17*
X66250000Y-67100000D03*
X66250000Y-66140000D03*
D16*
X130560000Y-120900000D03*
X129540000Y-120900000D03*
D23*
X122300000Y-128620000D03*
X122300000Y-129580000D03*
D16*
X155560000Y-91810000D03*
X154540000Y-91810000D03*
X105560000Y-120900000D03*
X104540000Y-120900000D03*
D12*
X105525000Y-71975000D03*
X106175000Y-71975000D03*
X106825000Y-71975000D03*
X107475000Y-71975000D03*
X107475000Y-74025000D03*
X106825000Y-74025000D03*
X106175000Y-74025000D03*
X105525000Y-74025000D03*
D22*
X76900000Y-122225000D03*
X76900000Y-123775000D03*
D23*
X108500000Y-128520000D03*
X108500000Y-129480000D03*
D16*
X80560000Y-120900000D03*
X79540000Y-120900000D03*
D28*
X100380000Y-64800000D03*
X99420000Y-64800000D03*
D23*
X120850000Y-95040000D03*
X120850000Y-96000000D03*
D25*
X142400000Y-94200000D03*
X142400000Y-95000000D03*
X142400000Y-95800000D03*
X144700000Y-95800000D03*
X144700000Y-95000000D03*
X144700000Y-94200000D03*
D26*
X143550000Y-95000000D03*
D28*
X131280000Y-131100000D03*
X130320000Y-131100000D03*
D23*
X122300000Y-100620000D03*
X122300000Y-101580000D03*
X120850000Y-123040000D03*
X120850000Y-124000000D03*
D28*
X131280000Y-75100000D03*
X130320000Y-75100000D03*
D23*
X70850000Y-123040000D03*
X70850000Y-124000000D03*
D29*
X144800000Y-128600000D03*
X144800000Y-129400000D03*
X146200000Y-129400000D03*
X146200000Y-128600000D03*
D28*
X106280000Y-131100000D03*
X105320000Y-131100000D03*
X106280000Y-75100000D03*
X105320000Y-75100000D03*
D30*
X162000000Y-140000000D03*
D28*
X76180000Y-75300000D03*
X75220000Y-75300000D03*
X150380000Y-92800000D03*
X149420000Y-92800000D03*
D23*
X158500000Y-72520000D03*
X158500000Y-73480000D03*
D16*
X80560000Y-119810000D03*
X79540000Y-119810000D03*
D30*
X60000000Y-140000000D03*
D25*
X117400000Y-66200000D03*
X117400000Y-67000000D03*
X117400000Y-67800000D03*
X119700000Y-67800000D03*
X119700000Y-67000000D03*
X119700000Y-66200000D03*
D26*
X118550000Y-67000000D03*
D28*
X125380000Y-92800000D03*
X124420000Y-92800000D03*
X81280000Y-103100000D03*
X80320000Y-103100000D03*
D12*
X105525000Y-99975000D03*
X106175000Y-99975000D03*
X106825000Y-99975000D03*
X107475000Y-99975000D03*
X107475000Y-102025000D03*
X106825000Y-102025000D03*
X106175000Y-102025000D03*
X105525000Y-102025000D03*
D17*
X150500000Y-67480000D03*
X150500000Y-66520000D03*
X66250000Y-95100000D03*
X66250000Y-94140000D03*
D22*
X151900000Y-94225000D03*
X151900000Y-95775000D03*
D16*
X105560000Y-63810000D03*
X104540000Y-63810000D03*
D25*
X142400000Y-66200000D03*
X142400000Y-67000000D03*
X142400000Y-67800000D03*
X144700000Y-67800000D03*
X144700000Y-67000000D03*
X144700000Y-66200000D03*
D26*
X143550000Y-67000000D03*
D28*
X126180000Y-75300000D03*
X125220000Y-75300000D03*
D23*
X153900000Y-128520000D03*
X153900000Y-129480000D03*
D13*
X150300000Y-99800000D03*
X151100000Y-99800000D03*
X151900000Y-99800000D03*
X152700000Y-99800000D03*
X152700000Y-102200000D03*
X151900000Y-102200000D03*
X151100000Y-102200000D03*
X150300000Y-102200000D03*
D23*
X95850000Y-123040000D03*
X95850000Y-124000000D03*
D17*
X150500000Y-123480000D03*
X150500000Y-122520000D03*
X100500000Y-95480000D03*
X100500000Y-94520000D03*
D23*
X158500000Y-128520000D03*
X158500000Y-129480000D03*
D16*
X155560000Y-120900000D03*
X154540000Y-120900000D03*
D23*
X133500000Y-72520000D03*
X133500000Y-73480000D03*
D17*
X75500000Y-95480000D03*
X75500000Y-94520000D03*
D16*
X80560000Y-92900000D03*
X79540000Y-92900000D03*
D27*
X142350000Y-92720000D03*
X142350000Y-91700000D03*
D12*
X155525000Y-127975000D03*
X156175000Y-127975000D03*
X156825000Y-127975000D03*
X157475000Y-127975000D03*
X157475000Y-130025000D03*
X156825000Y-130025000D03*
X156175000Y-130025000D03*
X155525000Y-130025000D03*
D17*
X150500000Y-95480000D03*
X150500000Y-94520000D03*
D18*
X90250000Y-115500000D03*
X106750000Y-115500000D03*
D19*
X92425000Y-116475000D03*
D20*
X92200000Y-114675000D03*
D21*
X93550000Y-116325000D03*
D20*
X93100000Y-114675000D03*
D21*
X94450000Y-116325000D03*
D20*
X94000000Y-114675000D03*
D21*
X95350000Y-116325000D03*
D20*
X94900000Y-114675000D03*
D21*
X96250000Y-116325000D03*
D20*
X95800000Y-114675000D03*
D21*
X97150000Y-116325000D03*
D20*
X96700000Y-114675000D03*
D21*
X98050000Y-116325000D03*
D20*
X97600000Y-114675000D03*
D21*
X98950000Y-116325000D03*
D20*
X98500000Y-114675000D03*
D21*
X99850000Y-116325000D03*
D20*
X99400000Y-114675000D03*
D21*
X100750000Y-116325000D03*
D20*
X100300000Y-114675000D03*
D21*
X101650000Y-116325000D03*
D20*
X101200000Y-114675000D03*
D21*
X102550000Y-116325000D03*
D20*
X102100000Y-114675000D03*
D21*
X103450000Y-116325000D03*
D20*
X103000000Y-114675000D03*
D19*
X104575000Y-116475000D03*
D20*
X103900000Y-114675000D03*
X104800000Y-114675000D03*
D13*
X100300000Y-71800000D03*
X101100000Y-71800000D03*
X101900000Y-71800000D03*
X102700000Y-71800000D03*
X102700000Y-74200000D03*
X101900000Y-74200000D03*
X101100000Y-74200000D03*
X100300000Y-74200000D03*
D23*
X97300000Y-100620000D03*
X97300000Y-101580000D03*
D28*
X76180000Y-131300000D03*
X75220000Y-131300000D03*
D29*
X144800000Y-72600000D03*
X144800000Y-73400000D03*
X146200000Y-73400000D03*
X146200000Y-72600000D03*
X119800000Y-72600000D03*
X119800000Y-73400000D03*
X121200000Y-73400000D03*
X121200000Y-72600000D03*
D14*
X122737500Y-94250000D03*
X122737500Y-94750000D03*
X122737500Y-95250000D03*
X122737500Y-95750000D03*
D15*
X123250000Y-95762500D03*
X123750000Y-95762500D03*
D14*
X124262500Y-95750000D03*
X124262500Y-95250000D03*
X124262500Y-94750000D03*
X124262500Y-94250000D03*
D15*
X123750000Y-94237500D03*
X123250000Y-94237500D03*
D29*
X119800000Y-100600000D03*
X119800000Y-101400000D03*
X121200000Y-101400000D03*
X121200000Y-100600000D03*
D23*
X133500000Y-100520000D03*
X133500000Y-101480000D03*
D16*
X155560000Y-63810000D03*
X154540000Y-63810000D03*
D28*
X125380000Y-120800000D03*
X124420000Y-120800000D03*
D16*
X105560000Y-91810000D03*
X104540000Y-91810000D03*
D24*
X152000000Y-140000000D03*
D25*
X92400000Y-66200000D03*
X92400000Y-67000000D03*
X92400000Y-67800000D03*
X94700000Y-67800000D03*
X94700000Y-67000000D03*
X94700000Y-66200000D03*
D26*
X93550000Y-67000000D03*
D25*
X92400000Y-94200000D03*
X92400000Y-95000000D03*
X92400000Y-95800000D03*
X94700000Y-95800000D03*
X94700000Y-95000000D03*
X94700000Y-94200000D03*
D26*
X93550000Y-95000000D03*
D28*
X150380000Y-64800000D03*
X149420000Y-64800000D03*
D16*
X80560000Y-91810000D03*
X79540000Y-91810000D03*
D28*
X76180000Y-103300000D03*
X75220000Y-103300000D03*
D16*
X155560000Y-92900000D03*
X154540000Y-92900000D03*
D13*
X100300000Y-127800000D03*
X101100000Y-127800000D03*
X101900000Y-127800000D03*
X102700000Y-127800000D03*
X102700000Y-130200000D03*
X101900000Y-130200000D03*
X101100000Y-130200000D03*
X100300000Y-130200000D03*
D16*
X155560000Y-119810000D03*
X154540000Y-119810000D03*
D17*
X141250000Y-123100000D03*
X141250000Y-122140000D03*
D31*
X113950000Y-73205000D03*
X113950000Y-70665000D03*
X113950000Y-68125000D03*
X113950000Y-65585000D03*
D28*
X151180000Y-75300000D03*
X150220000Y-75300000D03*
D18*
X115250000Y-59500000D03*
X131750000Y-59500000D03*
D19*
X117425000Y-60475000D03*
D20*
X117200000Y-58675000D03*
D21*
X118550000Y-60325000D03*
D20*
X118100000Y-58675000D03*
D21*
X119450000Y-60325000D03*
D20*
X119000000Y-58675000D03*
D21*
X120350000Y-60325000D03*
D20*
X119900000Y-58675000D03*
D21*
X121250000Y-60325000D03*
D20*
X120800000Y-58675000D03*
D21*
X122150000Y-60325000D03*
D20*
X121700000Y-58675000D03*
D21*
X123050000Y-60325000D03*
D20*
X122600000Y-58675000D03*
D21*
X123950000Y-60325000D03*
D20*
X123500000Y-58675000D03*
D21*
X124850000Y-60325000D03*
D20*
X124400000Y-58675000D03*
D21*
X125750000Y-60325000D03*
D20*
X125300000Y-58675000D03*
D21*
X126650000Y-60325000D03*
D20*
X126200000Y-58675000D03*
D21*
X127550000Y-60325000D03*
D20*
X127100000Y-58675000D03*
D21*
X128450000Y-60325000D03*
D20*
X128000000Y-58675000D03*
D19*
X129575000Y-60475000D03*
D20*
X128900000Y-58675000D03*
X129800000Y-58675000D03*
D22*
X76900000Y-66225000D03*
X76900000Y-67775000D03*
X101900000Y-94225000D03*
X101900000Y-95775000D03*
D12*
X155525000Y-71975000D03*
X156175000Y-71975000D03*
X156825000Y-71975000D03*
X157475000Y-71975000D03*
X157475000Y-74025000D03*
X156825000Y-74025000D03*
X156175000Y-74025000D03*
X155525000Y-74025000D03*
D29*
X119800000Y-128600000D03*
X119800000Y-129400000D03*
X121200000Y-129400000D03*
X121200000Y-128600000D03*
D16*
X105560000Y-92900000D03*
X104540000Y-92900000D03*
D12*
X80525000Y-71975000D03*
X81175000Y-71975000D03*
X81825000Y-71975000D03*
X82475000Y-71975000D03*
X82475000Y-74025000D03*
X81825000Y-74025000D03*
X81175000Y-74025000D03*
X80525000Y-74025000D03*
D14*
X97737500Y-122250000D03*
X97737500Y-122750000D03*
X97737500Y-123250000D03*
X97737500Y-123750000D03*
D15*
X98250000Y-123762500D03*
X98750000Y-123762500D03*
D14*
X99262500Y-123750000D03*
X99262500Y-123250000D03*
X99262500Y-122750000D03*
X99262500Y-122250000D03*
D15*
X98750000Y-122237500D03*
X98250000Y-122237500D03*
D23*
X78900000Y-100520000D03*
X78900000Y-101480000D03*
D27*
X142350000Y-120720000D03*
X142350000Y-119700000D03*
D29*
X144800000Y-100600000D03*
X144800000Y-101400000D03*
X146200000Y-101400000D03*
X146200000Y-100600000D03*
D17*
X100500000Y-123480000D03*
X100500000Y-122520000D03*
D29*
X94800000Y-128600000D03*
X94800000Y-129400000D03*
X96200000Y-129400000D03*
X96200000Y-128600000D03*
D23*
X145850000Y-95040000D03*
X145850000Y-96000000D03*
D24*
X65000000Y-50000000D03*
D28*
X81280000Y-75100000D03*
X80320000Y-75100000D03*
D18*
X65250000Y-87500000D03*
X81750000Y-87500000D03*
D19*
X67425000Y-88475000D03*
D20*
X67200000Y-86675000D03*
D21*
X68550000Y-88325000D03*
D20*
X68100000Y-86675000D03*
D21*
X69450000Y-88325000D03*
D20*
X69000000Y-86675000D03*
D21*
X70350000Y-88325000D03*
D20*
X69900000Y-86675000D03*
D21*
X71250000Y-88325000D03*
D20*
X70800000Y-86675000D03*
D21*
X72150000Y-88325000D03*
D20*
X71700000Y-86675000D03*
D21*
X73050000Y-88325000D03*
D20*
X72600000Y-86675000D03*
D21*
X73950000Y-88325000D03*
D20*
X73500000Y-86675000D03*
D21*
X74850000Y-88325000D03*
D20*
X74400000Y-86675000D03*
D21*
X75750000Y-88325000D03*
D20*
X75300000Y-86675000D03*
D21*
X76650000Y-88325000D03*
D20*
X76200000Y-86675000D03*
D21*
X77550000Y-88325000D03*
D20*
X77100000Y-86675000D03*
D21*
X78450000Y-88325000D03*
D20*
X78000000Y-86675000D03*
D19*
X79575000Y-88475000D03*
D20*
X78900000Y-86675000D03*
X79800000Y-86675000D03*
D27*
X67350000Y-120720000D03*
X67350000Y-119700000D03*
D23*
X145850000Y-67040000D03*
X145850000Y-68000000D03*
X83500000Y-72520000D03*
X83500000Y-73480000D03*
D12*
X130525000Y-99975000D03*
X131175000Y-99975000D03*
X131825000Y-99975000D03*
X132475000Y-99975000D03*
X132475000Y-102025000D03*
X131825000Y-102025000D03*
X131175000Y-102025000D03*
X130525000Y-102025000D03*
D23*
X153900000Y-100520000D03*
X153900000Y-101480000D03*
X83500000Y-128520000D03*
X83500000Y-129480000D03*
D13*
X75300000Y-71800000D03*
X76100000Y-71800000D03*
X76900000Y-71800000D03*
X77700000Y-71800000D03*
X77700000Y-74200000D03*
X76900000Y-74200000D03*
X76100000Y-74200000D03*
X75300000Y-74200000D03*
D28*
X100380000Y-92800000D03*
X99420000Y-92800000D03*
D24*
X70000000Y-140000000D03*
D27*
X67350000Y-64720000D03*
X67350000Y-63700000D03*
D23*
X145850000Y-123040000D03*
X145850000Y-124000000D03*
D16*
X130560000Y-119810000D03*
X129540000Y-119810000D03*
D28*
X126180000Y-131300000D03*
X125220000Y-131300000D03*
D23*
X78900000Y-72520000D03*
X78900000Y-73480000D03*
D28*
X101180000Y-131300000D03*
X100220000Y-131300000D03*
D23*
X95850000Y-67040000D03*
X95850000Y-68000000D03*
D28*
X156280000Y-103100000D03*
X155320000Y-103100000D03*
X81280000Y-131100000D03*
X80320000Y-131100000D03*
D29*
X69800000Y-128600000D03*
X69800000Y-129400000D03*
X71200000Y-129400000D03*
X71200000Y-128600000D03*
D31*
X88950000Y-101205000D03*
X88950000Y-98665000D03*
X88950000Y-96125000D03*
X88950000Y-93585000D03*
X113950000Y-129205000D03*
X113950000Y-126665000D03*
X113950000Y-124125000D03*
X113950000Y-121585000D03*
D16*
X130560000Y-63810000D03*
X129540000Y-63810000D03*
D17*
X125500000Y-95480000D03*
X125500000Y-94520000D03*
D23*
X128900000Y-72520000D03*
X128900000Y-73480000D03*
X128900000Y-100520000D03*
X128900000Y-101480000D03*
D31*
X63950000Y-73205000D03*
X63950000Y-70665000D03*
X63950000Y-68125000D03*
X63950000Y-65585000D03*
D23*
X103900000Y-128520000D03*
X103900000Y-129480000D03*
D29*
X94800000Y-100600000D03*
X94800000Y-101400000D03*
X96200000Y-101400000D03*
X96200000Y-100600000D03*
D23*
X147300000Y-100620000D03*
X147300000Y-101580000D03*
D31*
X63950000Y-101205000D03*
X63950000Y-98665000D03*
X63950000Y-96125000D03*
X63950000Y-93585000D03*
D30*
X162000000Y-50000000D03*
D23*
X103900000Y-100520000D03*
X103900000Y-101480000D03*
D28*
X106280000Y-103100000D03*
X105320000Y-103100000D03*
D17*
X75500000Y-123480000D03*
X75500000Y-122520000D03*
D23*
X83500000Y-100520000D03*
X83500000Y-101480000D03*
D28*
X100380000Y-120800000D03*
X99420000Y-120800000D03*
D23*
X147300000Y-128620000D03*
X147300000Y-129580000D03*
D16*
X130560000Y-91810000D03*
X129540000Y-91810000D03*
D23*
X128900000Y-128520000D03*
X128900000Y-129480000D03*
D14*
X72737500Y-94250000D03*
X72737500Y-94750000D03*
X72737500Y-95250000D03*
X72737500Y-95750000D03*
D15*
X73250000Y-95762500D03*
X73750000Y-95762500D03*
D14*
X74262500Y-95750000D03*
X74262500Y-95250000D03*
X74262500Y-94750000D03*
X74262500Y-94250000D03*
D15*
X73750000Y-94237500D03*
X73250000Y-94237500D03*
D27*
X67350000Y-92720000D03*
X67350000Y-91700000D03*
D31*
X113950000Y-101205000D03*
X113950000Y-98665000D03*
X113950000Y-96125000D03*
X113950000Y-93585000D03*
D23*
X133500000Y-128520000D03*
X133500000Y-129480000D03*
D25*
X67400000Y-122200000D03*
X67400000Y-123000000D03*
X67400000Y-123800000D03*
X69700000Y-123800000D03*
X69700000Y-123000000D03*
X69700000Y-122200000D03*
D26*
X68550000Y-123000000D03*
D23*
X97300000Y-128620000D03*
X97300000Y-129580000D03*
X78900000Y-128520000D03*
X78900000Y-129480000D03*
X97300000Y-72620000D03*
X97300000Y-73580000D03*
D28*
X156280000Y-131100000D03*
X155320000Y-131100000D03*
D25*
X67400000Y-94200000D03*
X67400000Y-95000000D03*
X67400000Y-95800000D03*
X69700000Y-95800000D03*
X69700000Y-95000000D03*
X69700000Y-94200000D03*
D26*
X68550000Y-95000000D03*
D23*
X108500000Y-72520000D03*
X108500000Y-73480000D03*
X103900000Y-72520000D03*
X103900000Y-73480000D03*
D28*
X156280000Y-75100000D03*
X155320000Y-75100000D03*
D16*
X80560000Y-64900000D03*
X79540000Y-64900000D03*
D12*
X80525000Y-127975000D03*
X81175000Y-127975000D03*
X81825000Y-127975000D03*
X82475000Y-127975000D03*
X82475000Y-130025000D03*
X81825000Y-130025000D03*
X81175000Y-130025000D03*
X80525000Y-130025000D03*
D23*
X70850000Y-95040000D03*
X70850000Y-96000000D03*
D12*
X105525000Y-127975000D03*
X106175000Y-127975000D03*
X106825000Y-127975000D03*
X107475000Y-127975000D03*
X107475000Y-130025000D03*
X106825000Y-130025000D03*
X106175000Y-130025000D03*
X105525000Y-130025000D03*
D23*
X72300000Y-128620000D03*
X72300000Y-129580000D03*
D17*
X141250000Y-67100000D03*
X141250000Y-66140000D03*
D31*
X138950000Y-101205000D03*
X138950000Y-98665000D03*
X138950000Y-96125000D03*
X138950000Y-93585000D03*
D17*
X125500000Y-67480000D03*
X125500000Y-66520000D03*
D16*
X130560000Y-64900000D03*
X129540000Y-64900000D03*
D17*
X116250000Y-95100000D03*
X116250000Y-94140000D03*
D13*
X100300000Y-99800000D03*
X101100000Y-99800000D03*
X101900000Y-99800000D03*
X102700000Y-99800000D03*
X102700000Y-102200000D03*
X101900000Y-102200000D03*
X101100000Y-102200000D03*
X100300000Y-102200000D03*
D28*
X131280000Y-103100000D03*
X130320000Y-103100000D03*
D13*
X75300000Y-99800000D03*
X76100000Y-99800000D03*
X76900000Y-99800000D03*
X77700000Y-99800000D03*
X77700000Y-102200000D03*
X76900000Y-102200000D03*
X76100000Y-102200000D03*
X75300000Y-102200000D03*
D14*
X72737500Y-122250000D03*
X72737500Y-122750000D03*
X72737500Y-123250000D03*
X72737500Y-123750000D03*
D15*
X73250000Y-123762500D03*
X73750000Y-123762500D03*
D14*
X74262500Y-123750000D03*
X74262500Y-123250000D03*
X74262500Y-122750000D03*
X74262500Y-122250000D03*
D15*
X73750000Y-122237500D03*
X73250000Y-122237500D03*
D18*
X90250000Y-87500000D03*
X106750000Y-87500000D03*
D19*
X92425000Y-88475000D03*
D20*
X92200000Y-86675000D03*
D21*
X93550000Y-88325000D03*
D20*
X93100000Y-86675000D03*
D21*
X94450000Y-88325000D03*
D20*
X94000000Y-86675000D03*
D21*
X95350000Y-88325000D03*
D20*
X94900000Y-86675000D03*
D21*
X96250000Y-88325000D03*
D20*
X95800000Y-86675000D03*
D21*
X97150000Y-88325000D03*
D20*
X96700000Y-86675000D03*
D21*
X98050000Y-88325000D03*
D20*
X97600000Y-86675000D03*
D21*
X98950000Y-88325000D03*
D20*
X98500000Y-86675000D03*
D21*
X99850000Y-88325000D03*
D20*
X99400000Y-86675000D03*
D21*
X100750000Y-88325000D03*
D20*
X100300000Y-86675000D03*
D21*
X101650000Y-88325000D03*
D20*
X101200000Y-86675000D03*
D21*
X102550000Y-88325000D03*
D20*
X102100000Y-86675000D03*
D21*
X103450000Y-88325000D03*
D20*
X103000000Y-86675000D03*
D19*
X104575000Y-88475000D03*
D20*
X103900000Y-86675000D03*
X104800000Y-86675000D03*
D16*
X155560000Y-64900000D03*
X154540000Y-64900000D03*
D31*
X138950000Y-73205000D03*
X138950000Y-70665000D03*
X138950000Y-68125000D03*
X138950000Y-65585000D03*
X63950000Y-129205000D03*
X63950000Y-126665000D03*
X63950000Y-124125000D03*
X63950000Y-121585000D03*
D13*
X125300000Y-127800000D03*
X126100000Y-127800000D03*
X126900000Y-127800000D03*
X127700000Y-127800000D03*
X127700000Y-130200000D03*
X126900000Y-130200000D03*
X126100000Y-130200000D03*
X125300000Y-130200000D03*
D29*
X69800000Y-72600000D03*
X69800000Y-73400000D03*
X71200000Y-73400000D03*
X71200000Y-72600000D03*
D27*
X92350000Y-64720000D03*
X92350000Y-63700000D03*
D12*
X130525000Y-71975000D03*
X131175000Y-71975000D03*
X131825000Y-71975000D03*
X132475000Y-71975000D03*
X132475000Y-74025000D03*
X131825000Y-74025000D03*
X131175000Y-74025000D03*
X130525000Y-74025000D03*
D14*
X97737500Y-94250000D03*
X97737500Y-94750000D03*
X97737500Y-95250000D03*
X97737500Y-95750000D03*
D15*
X98250000Y-95762500D03*
X98750000Y-95762500D03*
D14*
X99262500Y-95750000D03*
X99262500Y-95250000D03*
X99262500Y-94750000D03*
X99262500Y-94250000D03*
D15*
X98750000Y-94237500D03*
X98250000Y-94237500D03*
D17*
X116250000Y-123100000D03*
X116250000Y-122140000D03*
D14*
X97737500Y-66250000D03*
X97737500Y-66750000D03*
X97737500Y-67250000D03*
X97737500Y-67750000D03*
D15*
X98250000Y-67762500D03*
X98750000Y-67762500D03*
D14*
X99262500Y-67750000D03*
X99262500Y-67250000D03*
X99262500Y-66750000D03*
X99262500Y-66250000D03*
D15*
X98750000Y-66237500D03*
X98250000Y-66237500D03*
D23*
X95850000Y-95040000D03*
X95850000Y-96000000D03*
D25*
X117400000Y-94200000D03*
X117400000Y-95000000D03*
X117400000Y-95800000D03*
X119700000Y-95800000D03*
X119700000Y-95000000D03*
X119700000Y-94200000D03*
D26*
X118550000Y-95000000D03*
D23*
X120850000Y-67040000D03*
X120850000Y-68000000D03*
D16*
X105560000Y-119810000D03*
X104540000Y-119810000D03*
D17*
X75500000Y-67480000D03*
X75500000Y-66520000D03*
X91250000Y-123100000D03*
X91250000Y-122140000D03*
D31*
X138950000Y-129205000D03*
X138950000Y-126665000D03*
X138950000Y-124125000D03*
X138950000Y-121585000D03*
D16*
X80560000Y-63810000D03*
X79540000Y-63810000D03*
D23*
X153900000Y-72520000D03*
X153900000Y-73480000D03*
D27*
X92350000Y-120720000D03*
X92350000Y-119700000D03*
D28*
X101180000Y-103300000D03*
X100220000Y-103300000D03*
D30*
X60000000Y-50000000D03*
D29*
X69800000Y-100600000D03*
X69800000Y-101400000D03*
X71200000Y-101400000D03*
X71200000Y-100600000D03*
D22*
X101900000Y-66225000D03*
X101900000Y-67775000D03*
D28*
X75380000Y-120800000D03*
X74420000Y-120800000D03*
X75380000Y-92800000D03*
X74420000Y-92800000D03*
D27*
X92350000Y-92720000D03*
X92350000Y-91700000D03*
D25*
X67400000Y-66200000D03*
X67400000Y-67000000D03*
X67400000Y-67800000D03*
X69700000Y-67800000D03*
X69700000Y-67000000D03*
X69700000Y-66200000D03*
D26*
X68550000Y-67000000D03*
D17*
X91250000Y-67100000D03*
X91250000Y-66140000D03*
D18*
X140250000Y-87500000D03*
X156750000Y-87500000D03*
D19*
X142425000Y-88475000D03*
D20*
X142200000Y-86675000D03*
D21*
X143550000Y-88325000D03*
D20*
X143100000Y-86675000D03*
D21*
X144450000Y-88325000D03*
D20*
X144000000Y-86675000D03*
D21*
X145350000Y-88325000D03*
D20*
X144900000Y-86675000D03*
D21*
X146250000Y-88325000D03*
D20*
X145800000Y-86675000D03*
D21*
X147150000Y-88325000D03*
D20*
X146700000Y-86675000D03*
D21*
X148050000Y-88325000D03*
D20*
X147600000Y-86675000D03*
D21*
X148950000Y-88325000D03*
D20*
X148500000Y-86675000D03*
D21*
X149850000Y-88325000D03*
D20*
X149400000Y-86675000D03*
D21*
X150750000Y-88325000D03*
D20*
X150300000Y-86675000D03*
D21*
X151650000Y-88325000D03*
D20*
X151200000Y-86675000D03*
D21*
X152550000Y-88325000D03*
D20*
X152100000Y-86675000D03*
D21*
X153450000Y-88325000D03*
D20*
X153000000Y-86675000D03*
D19*
X154575000Y-88475000D03*
D20*
X153900000Y-86675000D03*
X154800000Y-86675000D03*
D17*
X116250000Y-67100000D03*
X116250000Y-66140000D03*
D23*
X70850000Y-67040000D03*
X70850000Y-68000000D03*
D28*
X101180000Y-75300000D03*
X100220000Y-75300000D03*
X150380000Y-120800000D03*
X149420000Y-120800000D03*
D12*
X130525000Y-127975000D03*
X131175000Y-127975000D03*
X131825000Y-127975000D03*
X132475000Y-127975000D03*
X132475000Y-130025000D03*
X131825000Y-130025000D03*
X131175000Y-130025000D03*
X130525000Y-130025000D03*
D18*
X140250000Y-59500000D03*
X156750000Y-59500000D03*
D19*
X142425000Y-60475000D03*
D20*
X142200000Y-58675000D03*
D21*
X143550000Y-60325000D03*
D20*
X143100000Y-58675000D03*
D21*
X144450000Y-60325000D03*
D20*
X144000000Y-58675000D03*
D21*
X145350000Y-60325000D03*
D20*
X144900000Y-58675000D03*
D21*
X146250000Y-60325000D03*
D20*
X145800000Y-58675000D03*
D21*
X147150000Y-60325000D03*
D20*
X146700000Y-58675000D03*
D21*
X148050000Y-60325000D03*
D20*
X147600000Y-58675000D03*
D21*
X148950000Y-60325000D03*
D20*
X148500000Y-58675000D03*
D21*
X149850000Y-60325000D03*
D20*
X149400000Y-58675000D03*
D21*
X150750000Y-60325000D03*
D20*
X150300000Y-58675000D03*
D21*
X151650000Y-60325000D03*
D20*
X151200000Y-58675000D03*
D21*
X152550000Y-60325000D03*
D20*
X152100000Y-58675000D03*
D21*
X153450000Y-60325000D03*
D20*
X153000000Y-58675000D03*
D19*
X154575000Y-60475000D03*
D20*
X153900000Y-58675000D03*
X154800000Y-58675000D03*
D23*
X158500000Y-100520000D03*
X158500000Y-101480000D03*
D28*
X125380000Y-64800000D03*
X124420000Y-64800000D03*
D12*
X80525000Y-99975000D03*
X81175000Y-99975000D03*
X81825000Y-99975000D03*
X82475000Y-99975000D03*
X82475000Y-102025000D03*
X81825000Y-102025000D03*
X81175000Y-102025000D03*
X80525000Y-102025000D03*
D25*
X142400000Y-122200000D03*
X142400000Y-123000000D03*
X142400000Y-123800000D03*
X144700000Y-123800000D03*
X144700000Y-123000000D03*
X144700000Y-122200000D03*
D26*
X143550000Y-123000000D03*
D18*
X140250000Y-115500000D03*
X156750000Y-115500000D03*
D19*
X142425000Y-116475000D03*
D20*
X142200000Y-114675000D03*
D21*
X143550000Y-116325000D03*
D20*
X143100000Y-114675000D03*
D21*
X144450000Y-116325000D03*
D20*
X144000000Y-114675000D03*
D21*
X145350000Y-116325000D03*
D20*
X144900000Y-114675000D03*
D21*
X146250000Y-116325000D03*
D20*
X145800000Y-114675000D03*
D21*
X147150000Y-116325000D03*
D20*
X146700000Y-114675000D03*
D21*
X148050000Y-116325000D03*
D20*
X147600000Y-114675000D03*
D21*
X148950000Y-116325000D03*
D20*
X148500000Y-114675000D03*
D21*
X149850000Y-116325000D03*
D20*
X149400000Y-114675000D03*
D21*
X150750000Y-116325000D03*
D20*
X150300000Y-114675000D03*
D21*
X151650000Y-116325000D03*
D20*
X151200000Y-114675000D03*
D21*
X152550000Y-116325000D03*
D20*
X152100000Y-114675000D03*
D21*
X153450000Y-116325000D03*
D20*
X153000000Y-114675000D03*
D19*
X154575000Y-116475000D03*
D20*
X153900000Y-114675000D03*
X154800000Y-114675000D03*
D28*
X75380000Y-64800000D03*
X74420000Y-64800000D03*
D14*
X147737500Y-66250000D03*
X147737500Y-66750000D03*
X147737500Y-67250000D03*
X147737500Y-67750000D03*
D15*
X148250000Y-67762500D03*
X148750000Y-67762500D03*
D14*
X149262500Y-67750000D03*
X149262500Y-67250000D03*
X149262500Y-66750000D03*
X149262500Y-66250000D03*
D15*
X148750000Y-66237500D03*
X148250000Y-66237500D03*
D18*
X65250000Y-115500000D03*
X81750000Y-115500000D03*
D19*
X67425000Y-116475000D03*
D20*
X67200000Y-114675000D03*
D21*
X68550000Y-116325000D03*
D20*
X68100000Y-114675000D03*
D21*
X69450000Y-116325000D03*
D20*
X69000000Y-114675000D03*
D21*
X70350000Y-116325000D03*
D20*
X69900000Y-114675000D03*
D21*
X71250000Y-116325000D03*
D20*
X70800000Y-114675000D03*
D21*
X72150000Y-116325000D03*
D20*
X71700000Y-114675000D03*
D21*
X73050000Y-116325000D03*
D20*
X72600000Y-114675000D03*
D21*
X73950000Y-116325000D03*
D20*
X73500000Y-114675000D03*
D21*
X74850000Y-116325000D03*
D20*
X74400000Y-114675000D03*
D21*
X75750000Y-116325000D03*
D20*
X75300000Y-114675000D03*
D21*
X76650000Y-116325000D03*
D20*
X76200000Y-114675000D03*
D21*
X77550000Y-116325000D03*
D20*
X77100000Y-114675000D03*
D21*
X78450000Y-116325000D03*
D20*
X78000000Y-114675000D03*
D19*
X79575000Y-116475000D03*
D20*
X78900000Y-114675000D03*
X79800000Y-114675000D03*
D23*
X72300000Y-72620000D03*
X72300000Y-73580000D03*
D17*
X125500000Y-123480000D03*
X125500000Y-122520000D03*
D27*
X117350000Y-64720000D03*
X117350000Y-63700000D03*
D22*
X126900000Y-94225000D03*
X126900000Y-95775000D03*
X126900000Y-122225000D03*
X126900000Y-123775000D03*
D14*
X122737500Y-66250000D03*
X122737500Y-66750000D03*
X122737500Y-67250000D03*
X122737500Y-67750000D03*
D15*
X123250000Y-67762500D03*
X123750000Y-67762500D03*
D14*
X124262500Y-67750000D03*
X124262500Y-67250000D03*
X124262500Y-66750000D03*
X124262500Y-66250000D03*
D15*
X123750000Y-66237500D03*
X123250000Y-66237500D03*
D22*
X101900000Y-122225000D03*
X101900000Y-123775000D03*
D28*
X126180000Y-103300000D03*
X125220000Y-103300000D03*
D25*
X92400000Y-122200000D03*
X92400000Y-123000000D03*
X92400000Y-123800000D03*
X94700000Y-123800000D03*
X94700000Y-123000000D03*
X94700000Y-122200000D03*
D26*
X93550000Y-123000000D03*
D14*
X147737500Y-122250000D03*
X147737500Y-122750000D03*
X147737500Y-123250000D03*
X147737500Y-123750000D03*
D15*
X148250000Y-123762500D03*
X148750000Y-123762500D03*
D14*
X149262500Y-123750000D03*
X149262500Y-123250000D03*
X149262500Y-122750000D03*
X149262500Y-122250000D03*
D15*
X148750000Y-122237500D03*
X148250000Y-122237500D03*
D28*
X151180000Y-103300000D03*
X150220000Y-103300000D03*
D18*
X65250000Y-59500000D03*
X81750000Y-59500000D03*
D19*
X67425000Y-60475000D03*
D20*
X67200000Y-58675000D03*
D21*
X68550000Y-60325000D03*
D20*
X68100000Y-58675000D03*
D21*
X69450000Y-60325000D03*
D20*
X69000000Y-58675000D03*
D21*
X70350000Y-60325000D03*
D20*
X69900000Y-58675000D03*
D21*
X71250000Y-60325000D03*
D20*
X70800000Y-58675000D03*
D21*
X72150000Y-60325000D03*
D20*
X71700000Y-58675000D03*
D21*
X73050000Y-60325000D03*
D20*
X72600000Y-58675000D03*
D21*
X73950000Y-60325000D03*
D20*
X73500000Y-58675000D03*
D21*
X74850000Y-60325000D03*
D20*
X74400000Y-58675000D03*
D21*
X75750000Y-60325000D03*
D20*
X75300000Y-58675000D03*
D21*
X76650000Y-60325000D03*
D20*
X76200000Y-58675000D03*
D21*
X77550000Y-60325000D03*
D20*
X77100000Y-58675000D03*
D21*
X78450000Y-60325000D03*
D20*
X78000000Y-58675000D03*
D19*
X79575000Y-60475000D03*
D20*
X78900000Y-58675000D03*
X79800000Y-58675000D03*
D22*
X76900000Y-94225000D03*
X76900000Y-95775000D03*
D23*
X108500000Y-100520000D03*
X108500000Y-101480000D03*
D13*
X150300000Y-71800000D03*
X151100000Y-71800000D03*
X151900000Y-71800000D03*
X152700000Y-71800000D03*
X152700000Y-74200000D03*
X151900000Y-74200000D03*
X151100000Y-74200000D03*
X150300000Y-74200000D03*
X150300000Y-127800000D03*
X151100000Y-127800000D03*
X151900000Y-127800000D03*
X152700000Y-127800000D03*
X152700000Y-130200000D03*
X151900000Y-130200000D03*
X151100000Y-130200000D03*
X150300000Y-130200000D03*
D14*
X122737500Y-122250000D03*
X122737500Y-122750000D03*
X122737500Y-123250000D03*
X122737500Y-123750000D03*
D15*
X123250000Y-123762500D03*
X123750000Y-123762500D03*
D14*
X124262500Y-123750000D03*
X124262500Y-123250000D03*
X124262500Y-122750000D03*
X124262500Y-122250000D03*
D15*
X123750000Y-122237500D03*
X123250000Y-122237500D03*
D29*
X94800000Y-72600000D03*
X94800000Y-73400000D03*
X96200000Y-73400000D03*
X96200000Y-72600000D03*
D17*
X66250000Y-123100000D03*
X66250000Y-122140000D03*
D27*
X117350000Y-120720000D03*
X117350000Y-119700000D03*
D31*
X88950000Y-129205000D03*
X88950000Y-126665000D03*
X88950000Y-124125000D03*
X88950000Y-121585000D03*
D27*
X117350000Y-92720000D03*
X117350000Y-91700000D03*
D18*
X115250000Y-87500000D03*
X131750000Y-87500000D03*
D19*
X117425000Y-88475000D03*
D20*
X117200000Y-86675000D03*
D21*
X118550000Y-88325000D03*
D20*
X118100000Y-86675000D03*
D21*
X119450000Y-88325000D03*
D20*
X119000000Y-86675000D03*
D21*
X120350000Y-88325000D03*
D20*
X119900000Y-86675000D03*
D21*
X121250000Y-88325000D03*
D20*
X120800000Y-86675000D03*
D21*
X122150000Y-88325000D03*
D20*
X121700000Y-86675000D03*
D21*
X123050000Y-88325000D03*
D20*
X122600000Y-86675000D03*
D21*
X123950000Y-88325000D03*
D20*
X123500000Y-86675000D03*
D21*
X124850000Y-88325000D03*
D20*
X124400000Y-86675000D03*
D21*
X125750000Y-88325000D03*
D20*
X125300000Y-86675000D03*
D21*
X126650000Y-88325000D03*
D20*
X126200000Y-86675000D03*
D21*
X127550000Y-88325000D03*
D20*
X127100000Y-86675000D03*
D21*
X128450000Y-88325000D03*
D20*
X128000000Y-86675000D03*
D19*
X129575000Y-88475000D03*
D20*
X128900000Y-86675000D03*
X129800000Y-86675000D03*
D23*
X122300000Y-72620000D03*
X122300000Y-73580000D03*
D31*
X88950000Y-73205000D03*
X88950000Y-70665000D03*
X88950000Y-68125000D03*
X88950000Y-65585000D03*
D23*
X72300000Y-100620000D03*
X72300000Y-101580000D03*
D32*
X138000000Y-132000000D03*
X125500000Y-96400000D03*
X126200000Y-104100000D03*
X84000000Y-63000000D03*
X128900000Y-71800000D03*
X106300000Y-103900000D03*
X121500000Y-132000000D03*
X73100000Y-128600000D03*
X156300000Y-131900000D03*
X119500000Y-91000000D03*
X84000000Y-76000000D03*
X84000000Y-132000000D03*
X96900000Y-95600000D03*
X84000000Y-91000000D03*
X126900000Y-124850000D03*
X101200000Y-76100000D03*
X78700000Y-118600000D03*
X96500000Y-132000000D03*
X94500000Y-119000000D03*
X153700000Y-118600000D03*
X78900000Y-71800000D03*
X108500000Y-99700000D03*
X80150000Y-90600000D03*
X79400000Y-90600000D03*
X128700000Y-118600000D03*
X88000000Y-132000000D03*
X95850000Y-68850000D03*
X109000000Y-91000000D03*
X101900000Y-68850000D03*
X121500000Y-76000000D03*
X103900000Y-71800000D03*
X152700000Y-103000000D03*
X66250000Y-67950000D03*
D33*
X154400000Y-60900000D03*
D32*
X150400000Y-120000000D03*
X108500000Y-71700000D03*
X130150000Y-90600000D03*
X106300000Y-75900000D03*
X129400000Y-62600000D03*
X103900000Y-127800000D03*
X153900000Y-99800000D03*
D33*
X79400000Y-60900000D03*
D32*
X71500000Y-76000000D03*
X68550000Y-121000000D03*
X98100000Y-72600000D03*
X79400000Y-118600000D03*
X95850000Y-96850000D03*
X91250000Y-123950000D03*
X148100000Y-72600000D03*
X138000000Y-91000000D03*
X63000000Y-76000000D03*
X125500000Y-124400000D03*
X156300000Y-103900000D03*
X104400000Y-90600000D03*
X118550000Y-93000000D03*
X143550000Y-65000000D03*
X100400000Y-92000000D03*
X76200000Y-132100000D03*
X158500000Y-71700000D03*
X74300000Y-96650000D03*
X146500000Y-76000000D03*
X134000000Y-76000000D03*
X109000000Y-76000000D03*
X121900000Y-123600000D03*
X73100000Y-100600000D03*
X138000000Y-76000000D03*
X103700000Y-90600000D03*
X131500000Y-67000000D03*
X120850000Y-68850000D03*
X106500000Y-123000000D03*
X125400000Y-120000000D03*
X75400000Y-92000000D03*
X130150000Y-118600000D03*
X76200000Y-104100000D03*
X154400000Y-62600000D03*
X81500000Y-123000000D03*
X66250000Y-95950000D03*
X141250000Y-67950000D03*
X70500000Y-127000000D03*
X109000000Y-119000000D03*
X75500000Y-68400000D03*
X99300000Y-96650000D03*
X109000000Y-63000000D03*
X76900000Y-96850000D03*
X116250000Y-123950000D03*
D33*
X104400000Y-116900000D03*
D32*
X158500000Y-127700000D03*
X102700000Y-75000000D03*
X154400000Y-118600000D03*
X133500000Y-99700000D03*
X131500000Y-123000000D03*
X101200000Y-132100000D03*
X81300000Y-131900000D03*
X153700000Y-90600000D03*
X88000000Y-119000000D03*
X128700000Y-90600000D03*
X151900000Y-68850000D03*
X120500000Y-127000000D03*
X156500000Y-67000000D03*
X130150000Y-62600000D03*
X145850000Y-96850000D03*
X143550000Y-93000000D03*
X73100000Y-72600000D03*
X155150000Y-62600000D03*
X109000000Y-104000000D03*
X143550000Y-121000000D03*
X152700000Y-75000000D03*
X131500000Y-95000000D03*
X145850000Y-68850000D03*
X116250000Y-95950000D03*
X113000000Y-132000000D03*
X88000000Y-76000000D03*
X144500000Y-119000000D03*
X81300000Y-103900000D03*
X118550000Y-65000000D03*
X96500000Y-76000000D03*
X88000000Y-63000000D03*
X113000000Y-119000000D03*
X101200000Y-104100000D03*
X105150000Y-118600000D03*
X134000000Y-104000000D03*
X84000000Y-104000000D03*
X99300000Y-124650000D03*
X71900000Y-67600000D03*
X134000000Y-132000000D03*
X91250000Y-95950000D03*
X96900000Y-123600000D03*
X104400000Y-62600000D03*
X93550000Y-121000000D03*
X138000000Y-104000000D03*
X150500000Y-68400000D03*
X126900000Y-96850000D03*
X152700000Y-131000000D03*
X127700000Y-75000000D03*
X93550000Y-65000000D03*
X63000000Y-119000000D03*
X70850000Y-96850000D03*
X146500000Y-104000000D03*
X83500000Y-71700000D03*
X81500000Y-95000000D03*
X80150000Y-62600000D03*
X98100000Y-128600000D03*
X78900000Y-99800000D03*
X76900000Y-68850000D03*
D33*
X154400000Y-88900000D03*
D32*
X74300000Y-68650000D03*
X156500000Y-95000000D03*
X150500000Y-96400000D03*
X146500000Y-132000000D03*
X103700000Y-118600000D03*
X100400000Y-64000000D03*
X133500000Y-71700000D03*
X69500000Y-63000000D03*
X153900000Y-71800000D03*
X100400000Y-120000000D03*
X91250000Y-67950000D03*
X146900000Y-95600000D03*
X113000000Y-76000000D03*
X70500000Y-99000000D03*
X129400000Y-90600000D03*
X124300000Y-96650000D03*
X63000000Y-132000000D03*
X131300000Y-103900000D03*
X155150000Y-118600000D03*
X68550000Y-93000000D03*
X100500000Y-68400000D03*
X99300000Y-68650000D03*
X93550000Y-93000000D03*
X63000000Y-104000000D03*
X124300000Y-124650000D03*
X98100000Y-100600000D03*
X131300000Y-75900000D03*
D33*
X104400000Y-60900000D03*
D32*
X141250000Y-123950000D03*
X75500000Y-96400000D03*
X68550000Y-65000000D03*
X156300000Y-75900000D03*
X149300000Y-96650000D03*
X88000000Y-104000000D03*
X134000000Y-91000000D03*
X156500000Y-123000000D03*
X100500000Y-96400000D03*
X153900000Y-127800000D03*
X159000000Y-91000000D03*
X151200000Y-132100000D03*
X125500000Y-68400000D03*
X100500000Y-124400000D03*
X125400000Y-92000000D03*
X74300000Y-124650000D03*
X95500000Y-71000000D03*
X121900000Y-95600000D03*
X109000000Y-132000000D03*
X120850000Y-124850000D03*
X88000000Y-91000000D03*
X159000000Y-104000000D03*
X104400000Y-118600000D03*
X102700000Y-103000000D03*
X128900000Y-127800000D03*
X128700000Y-62600000D03*
X69500000Y-91000000D03*
X81300000Y-75900000D03*
X76200000Y-76100000D03*
X155150000Y-90600000D03*
X129400000Y-118600000D03*
X75400000Y-120000000D03*
X158500000Y-99700000D03*
X95500000Y-99000000D03*
X153700000Y-62600000D03*
X120500000Y-99000000D03*
X127700000Y-103000000D03*
X145850000Y-124850000D03*
X113000000Y-91000000D03*
X159000000Y-76000000D03*
X116250000Y-67950000D03*
X96900000Y-67600000D03*
X106300000Y-131900000D03*
X123100000Y-128600000D03*
X83500000Y-99700000D03*
X148100000Y-100600000D03*
X70850000Y-124850000D03*
X75500000Y-124400000D03*
X145500000Y-71000000D03*
X128900000Y-99800000D03*
X70500000Y-71000000D03*
X133500000Y-127700000D03*
X138000000Y-63000000D03*
X66250000Y-123950000D03*
X103900000Y-99800000D03*
D33*
X129400000Y-116900000D03*
D32*
X144500000Y-91000000D03*
X71900000Y-123600000D03*
X113000000Y-104000000D03*
X123100000Y-100600000D03*
X78900000Y-127800000D03*
X105150000Y-62600000D03*
X120850000Y-96850000D03*
D33*
X129400000Y-60900000D03*
D32*
X77700000Y-131000000D03*
D33*
X79400000Y-88900000D03*
D32*
X77700000Y-103000000D03*
X126200000Y-76100000D03*
X127700000Y-131000000D03*
X81500000Y-67000000D03*
X113000000Y-63000000D03*
X102700000Y-131000000D03*
D33*
X154400000Y-116900000D03*
D32*
X134000000Y-63000000D03*
X78700000Y-62600000D03*
X94500000Y-91000000D03*
X154400000Y-90600000D03*
X141250000Y-95950000D03*
X103700000Y-62600000D03*
X101900000Y-96850000D03*
X84000000Y-119000000D03*
X150400000Y-64000000D03*
X159000000Y-132000000D03*
X151900000Y-96850000D03*
X106500000Y-67000000D03*
X106500000Y-95000000D03*
X145500000Y-127000000D03*
X78700000Y-90600000D03*
X149300000Y-124650000D03*
X151900000Y-124850000D03*
X126200000Y-132100000D03*
X101900000Y-124850000D03*
X149300000Y-68650000D03*
X131300000Y-131900000D03*
X150500000Y-124400000D03*
X134000000Y-119000000D03*
X121900000Y-67600000D03*
X96500000Y-104000000D03*
X151200000Y-104100000D03*
X121500000Y-104000000D03*
X75400000Y-64000000D03*
X120500000Y-71000000D03*
X77700000Y-75000000D03*
X108500000Y-127700000D03*
X71500000Y-104000000D03*
X119500000Y-119000000D03*
X80150000Y-118600000D03*
X95850000Y-124850000D03*
X148100000Y-128600000D03*
D33*
X104400000Y-88900000D03*
D32*
X124300000Y-68650000D03*
X69500000Y-119000000D03*
X145500000Y-99000000D03*
D33*
X79400000Y-116900000D03*
D32*
X150400000Y-92000000D03*
X146900000Y-67600000D03*
X118550000Y-121000000D03*
X159000000Y-119000000D03*
X63000000Y-63000000D03*
X71500000Y-132000000D03*
X94500000Y-63000000D03*
X63000000Y-91000000D03*
X125400000Y-64000000D03*
X76900000Y-124850000D03*
D33*
X129400000Y-88900000D03*
D32*
X95500000Y-127000000D03*
X105150000Y-90600000D03*
X83500000Y-127700000D03*
X123100000Y-72600000D03*
X159000000Y-63000000D03*
X144500000Y-63000000D03*
X119500000Y-63000000D03*
X70850000Y-68850000D03*
X138000000Y-119000000D03*
X126900000Y-68850000D03*
X151200000Y-76100000D03*
X71900000Y-95600000D03*
X79400000Y-62600000D03*
X146900000Y-123600000D03*
X151900000Y-121150000D03*
X151100000Y-127000000D03*
X126900000Y-65150000D03*
X76900000Y-121150000D03*
X125200000Y-132100000D03*
X149400000Y-120000000D03*
X125200000Y-76100000D03*
X101900000Y-65150000D03*
X146900000Y-66750000D03*
D33*
X67600000Y-88900000D03*
D32*
X78900000Y-102200000D03*
X153900000Y-74200000D03*
D33*
X117600000Y-88900000D03*
D32*
X156350000Y-64900000D03*
X151100000Y-99000000D03*
X103900000Y-102200000D03*
X106350000Y-119800000D03*
X98100000Y-101600000D03*
X99400000Y-120000000D03*
X100200000Y-76100000D03*
X156200000Y-99200000D03*
X74400000Y-64000000D03*
X67350000Y-62800000D03*
X131350000Y-63800000D03*
X158500000Y-130300000D03*
X67350000Y-90800000D03*
X145850000Y-94200000D03*
D33*
X92600000Y-116900000D03*
D32*
X81350000Y-119800000D03*
X126100000Y-127000000D03*
X133500000Y-74300000D03*
X105300000Y-103900000D03*
X153900000Y-102200000D03*
X81200000Y-99200000D03*
X133500000Y-130300000D03*
X100200000Y-104100000D03*
X81350000Y-92900000D03*
X124400000Y-92000000D03*
X128900000Y-130200000D03*
X105300000Y-131900000D03*
X101100000Y-71000000D03*
X99400000Y-92000000D03*
X106350000Y-120900000D03*
X121900000Y-94750000D03*
X71900000Y-66750000D03*
X126100000Y-71000000D03*
X148100000Y-101600000D03*
X73100000Y-101600000D03*
X71900000Y-122750000D03*
X124400000Y-64000000D03*
X131350000Y-120900000D03*
X74400000Y-92000000D03*
X76900000Y-93150000D03*
X75200000Y-132100000D03*
X98100000Y-73600000D03*
X130300000Y-75900000D03*
X76100000Y-127000000D03*
X130300000Y-103900000D03*
X92350000Y-118800000D03*
X150200000Y-76100000D03*
X81200000Y-71200000D03*
X125200000Y-104100000D03*
D33*
X142600000Y-88900000D03*
D32*
X156350000Y-119800000D03*
X78900000Y-130200000D03*
X70850000Y-94200000D03*
X142350000Y-62800000D03*
X121900000Y-122750000D03*
X74400000Y-120000000D03*
X76900000Y-65150000D03*
X156350000Y-91800000D03*
X101900000Y-121150000D03*
X106350000Y-91800000D03*
X156200000Y-71200000D03*
X148100000Y-129600000D03*
X92350000Y-62800000D03*
X131200000Y-99200000D03*
X108500000Y-74300000D03*
X101900000Y-93150000D03*
X80300000Y-75900000D03*
X99400000Y-64000000D03*
X83500000Y-74300000D03*
X123100000Y-129600000D03*
X150200000Y-104100000D03*
D33*
X117600000Y-60900000D03*
D32*
X120850000Y-66200000D03*
X106350000Y-92900000D03*
X151900000Y-65150000D03*
X73100000Y-73600000D03*
D33*
X67600000Y-116900000D03*
D32*
X96900000Y-66750000D03*
X131350000Y-92900000D03*
X71900000Y-94750000D03*
X158500000Y-102300000D03*
X131350000Y-64900000D03*
X100200000Y-132100000D03*
D33*
X67600000Y-60900000D03*
D32*
X156350000Y-92900000D03*
X142350000Y-118800000D03*
X117350000Y-118800000D03*
X76100000Y-71000000D03*
X108500000Y-102300000D03*
D33*
X142600000Y-116900000D03*
D32*
X103900000Y-74200000D03*
X78900000Y-74200000D03*
X67350000Y-118800000D03*
X149400000Y-92000000D03*
X151900000Y-93150000D03*
X117350000Y-90800000D03*
X96900000Y-94750000D03*
X146900000Y-94750000D03*
X128900000Y-102200000D03*
X83500000Y-102300000D03*
X101100000Y-127000000D03*
X80300000Y-103900000D03*
X95850000Y-66200000D03*
X149400000Y-64000000D03*
X142350000Y-90800000D03*
X126100000Y-99000000D03*
X123100000Y-73600000D03*
X108500000Y-130300000D03*
X81200000Y-127200000D03*
X155300000Y-131900000D03*
X70850000Y-66200000D03*
X117350000Y-62800000D03*
X80300000Y-131900000D03*
X156350000Y-120900000D03*
X150200000Y-132100000D03*
X92350000Y-90800000D03*
X106350000Y-63800000D03*
X158500000Y-74300000D03*
X153900000Y-130200000D03*
D33*
X92600000Y-60900000D03*
D32*
X105300000Y-75900000D03*
X96900000Y-122750000D03*
X106200000Y-127200000D03*
X131200000Y-127200000D03*
X70850000Y-122200000D03*
D33*
X92600000Y-88900000D03*
D32*
X124400000Y-120000000D03*
X83500000Y-130300000D03*
X106200000Y-99200000D03*
X121900000Y-66750000D03*
X98100000Y-129600000D03*
X128900000Y-74200000D03*
X126900000Y-121150000D03*
X120850000Y-94200000D03*
X101100000Y-99000000D03*
X133500000Y-102300000D03*
X106350000Y-64900000D03*
X155300000Y-103900000D03*
X155300000Y-75900000D03*
X130300000Y-131900000D03*
X73100000Y-129600000D03*
X95850000Y-122200000D03*
X81350000Y-120900000D03*
X81350000Y-63800000D03*
X81350000Y-64900000D03*
X145850000Y-122200000D03*
X120850000Y-122200000D03*
X145850000Y-66200000D03*
X76100000Y-99000000D03*
D33*
X142600000Y-60900000D03*
D32*
X103900000Y-130200000D03*
X156200000Y-127200000D03*
X75200000Y-104100000D03*
X148100000Y-73600000D03*
X131350000Y-119800000D03*
X75200000Y-76100000D03*
X123100000Y-101600000D03*
X151100000Y-71000000D03*
X131200000Y-71200000D03*
X156350000Y-63800000D03*
X146900000Y-122750000D03*
X126900000Y-93150000D03*
D33*
X117600000Y-116900000D03*
D32*
X95850000Y-94200000D03*
X106200000Y-71200000D03*
X131350000Y-91800000D03*
X81350000Y-91800000D03*
X147050000Y-96450000D03*
X128750000Y-92900000D03*
X106800000Y-126500000D03*
X156800000Y-126500000D03*
X72050000Y-96450000D03*
X144000000Y-128600000D03*
X142400000Y-68800000D03*
X122050000Y-124450000D03*
X103750000Y-64900000D03*
X78750000Y-64900000D03*
X67400000Y-124800000D03*
X119000000Y-100600000D03*
X153750000Y-120900000D03*
X117400000Y-68800000D03*
X76900000Y-71000000D03*
X76900000Y-127000000D03*
X97050000Y-124450000D03*
X119000000Y-72600000D03*
X69000000Y-100600000D03*
D33*
X152550000Y-116900000D03*
D32*
X147050000Y-124450000D03*
X94000000Y-72600000D03*
X78750000Y-120900000D03*
X156800000Y-70500000D03*
D33*
X152550000Y-88900000D03*
D32*
X67400000Y-96800000D03*
X69000000Y-72600000D03*
D33*
X77550000Y-60900000D03*
D32*
X101900000Y-99000000D03*
X101900000Y-71000000D03*
X94000000Y-128600000D03*
X144000000Y-72600000D03*
D33*
X102550000Y-60900000D03*
D32*
X103750000Y-92900000D03*
D33*
X102550000Y-116900000D03*
D32*
X97050000Y-96450000D03*
D33*
X77550000Y-116900000D03*
D32*
X92400000Y-96800000D03*
D33*
X127550000Y-116900000D03*
D32*
X92400000Y-68800000D03*
X131800000Y-126500000D03*
X126900000Y-71000000D03*
X72050000Y-124450000D03*
X72050000Y-68450000D03*
D33*
X127550000Y-88900000D03*
D32*
X142400000Y-124800000D03*
D33*
X127550000Y-60900000D03*
D32*
X106800000Y-98500000D03*
X103750000Y-120900000D03*
X126900000Y-127000000D03*
X131800000Y-70500000D03*
X153750000Y-92900000D03*
X117400000Y-96800000D03*
X81800000Y-98500000D03*
X119000000Y-128600000D03*
X153750000Y-64900000D03*
X78750000Y-92900000D03*
X76900000Y-99000000D03*
X144000000Y-100600000D03*
X131800000Y-98500000D03*
X92400000Y-124800000D03*
X106800000Y-70500000D03*
X126900000Y-99000000D03*
D33*
X102550000Y-88900000D03*
X152550000Y-60900000D03*
D32*
X81800000Y-70500000D03*
X94000000Y-100600000D03*
X81800000Y-126500000D03*
X147050000Y-68450000D03*
X128750000Y-120900000D03*
X151900000Y-99000000D03*
X128750000Y-64900000D03*
D33*
X77550000Y-88900000D03*
D32*
X69000000Y-128600000D03*
X97050000Y-68450000D03*
X142400000Y-96800000D03*
X151900000Y-127000000D03*
X101900000Y-127000000D03*
X122050000Y-96450000D03*
X122050000Y-68450000D03*
X156800000Y-98500000D03*
X151900000Y-71000000D03*
X67400000Y-68800000D03*
X117400000Y-124800000D03*
X132500000Y-127200000D03*
X69000000Y-101400000D03*
X107500000Y-127200000D03*
X147000000Y-65550000D03*
X128750000Y-91800000D03*
D33*
X128450000Y-88900000D03*
D32*
X127700000Y-127000000D03*
X103750000Y-119800000D03*
X97000000Y-121550000D03*
X77700000Y-99000000D03*
X144700000Y-65150000D03*
X103750000Y-63800000D03*
X127700000Y-99000000D03*
D33*
X128450000Y-60900000D03*
D32*
X97000000Y-65550000D03*
X78750000Y-63800000D03*
D33*
X153450000Y-60900000D03*
D32*
X69700000Y-93150000D03*
X152700000Y-71000000D03*
X157500000Y-99200000D03*
D33*
X153450000Y-88900000D03*
D32*
X72000000Y-93550000D03*
D33*
X103450000Y-60900000D03*
D32*
X152700000Y-127000000D03*
X128750000Y-63800000D03*
X119000000Y-129400000D03*
X72000000Y-121550000D03*
X78750000Y-119800000D03*
X94000000Y-129400000D03*
X94000000Y-101400000D03*
X103750000Y-91800000D03*
X119000000Y-73400000D03*
X94700000Y-121150000D03*
X122000000Y-65550000D03*
X82500000Y-99200000D03*
X119700000Y-65150000D03*
X157500000Y-71200000D03*
X132500000Y-99200000D03*
X153750000Y-119800000D03*
X82500000Y-71200000D03*
X132500000Y-71200000D03*
X94700000Y-65150000D03*
D33*
X78450000Y-60900000D03*
D32*
X157500000Y-127200000D03*
X122000000Y-93550000D03*
X128750000Y-119800000D03*
X102700000Y-99000000D03*
X153750000Y-63800000D03*
X97000000Y-93550000D03*
X153750000Y-91800000D03*
X147000000Y-93550000D03*
X119700000Y-121150000D03*
X127700000Y-71000000D03*
D33*
X78450000Y-116900000D03*
D32*
X122000000Y-121550000D03*
X94700000Y-93150000D03*
X119000000Y-101400000D03*
X107500000Y-71200000D03*
X144000000Y-129400000D03*
D33*
X103450000Y-116900000D03*
D32*
X102700000Y-71000000D03*
X144000000Y-73400000D03*
X102700000Y-127000000D03*
X77700000Y-71000000D03*
D33*
X128450000Y-116900000D03*
D32*
X72000000Y-65550000D03*
X107500000Y-99200000D03*
X144700000Y-121150000D03*
X69000000Y-73400000D03*
D33*
X103450000Y-88900000D03*
D32*
X147000000Y-121550000D03*
X144000000Y-101400000D03*
X82500000Y-127200000D03*
D33*
X153450000Y-116900000D03*
D32*
X119700000Y-93150000D03*
X94000000Y-73400000D03*
X78750000Y-91800000D03*
D33*
X78450000Y-88900000D03*
D32*
X69000000Y-129400000D03*
X77700000Y-127000000D03*
X69700000Y-65150000D03*
X69700000Y-121150000D03*
X152700000Y-99000000D03*
X144700000Y-93150000D03*
D33*
X77100000Y-58100000D03*
D32*
X123250000Y-65450000D03*
D33*
X102100000Y-114100000D03*
X77100000Y-86100000D03*
X127100000Y-86100000D03*
X127100000Y-114100000D03*
X77100000Y-114100000D03*
D32*
X73250000Y-93450000D03*
X98250000Y-65450000D03*
X123250000Y-121450000D03*
X98250000Y-121450000D03*
D33*
X102100000Y-86100000D03*
D32*
X148250000Y-93450000D03*
X73250000Y-121450000D03*
X148250000Y-65450000D03*
D33*
X152100000Y-58100000D03*
X127100000Y-58100000D03*
X102100000Y-58100000D03*
D32*
X73250000Y-65450000D03*
D33*
X152100000Y-114100000D03*
D32*
X123250000Y-93450000D03*
D33*
X152100000Y-86100000D03*
D32*
X148250000Y-121450000D03*
X98250000Y-93450000D03*
D33*
X117200000Y-86100000D03*
X67200000Y-86100000D03*
X67200000Y-58100000D03*
X117200000Y-58100000D03*
X92200000Y-86100000D03*
X142200000Y-86100000D03*
X117200000Y-114100000D03*
X67200000Y-114100000D03*
X92200000Y-58100000D03*
X142200000Y-114100000D03*
X142200000Y-58100000D03*
X92200000Y-114100000D03*
X68550000Y-88900000D03*
X93550000Y-88900000D03*
X68550000Y-60900000D03*
X68550000Y-116900000D03*
X143550000Y-88900000D03*
X143550000Y-60900000D03*
X143550000Y-116900000D03*
X118550000Y-88900000D03*
X93550000Y-60900000D03*
X118550000Y-116900000D03*
X93550000Y-116900000D03*
X118550000Y-60900000D03*
X93100000Y-86100000D03*
X143100000Y-114100000D03*
X118100000Y-86100000D03*
X118100000Y-114100000D03*
X93100000Y-58100000D03*
X143100000Y-86100000D03*
X68100000Y-58100000D03*
X68100000Y-114100000D03*
X68100000Y-86100000D03*
X143100000Y-58100000D03*
X118100000Y-58100000D03*
X93100000Y-114100000D03*
X94450000Y-60900000D03*
X144450000Y-116900000D03*
X119450000Y-88900000D03*
X144450000Y-60900000D03*
X144450000Y-88900000D03*
X94450000Y-116900000D03*
X94450000Y-88900000D03*
X69450000Y-116900000D03*
X69450000Y-60900000D03*
X119450000Y-116900000D03*
X119450000Y-60900000D03*
X69450000Y-88900000D03*
X69000000Y-58100000D03*
X94000000Y-86100000D03*
X119000000Y-114100000D03*
X119000000Y-58100000D03*
X144000000Y-58100000D03*
X94000000Y-58100000D03*
X94000000Y-114100000D03*
X119000000Y-86100000D03*
X69000000Y-114100000D03*
X144000000Y-114100000D03*
X144000000Y-86100000D03*
X69000000Y-86100000D03*
X70350000Y-88900000D03*
X145350000Y-60900000D03*
X95350000Y-88900000D03*
X120350000Y-88900000D03*
X70350000Y-60900000D03*
X70350000Y-116900000D03*
X120350000Y-116900000D03*
X120350000Y-60900000D03*
X145350000Y-88900000D03*
X95350000Y-60900000D03*
X145350000Y-116900000D03*
X95350000Y-116900000D03*
X94900000Y-86100000D03*
X69900000Y-58100000D03*
X119900000Y-114100000D03*
X69900000Y-86100000D03*
X119900000Y-58100000D03*
X94900000Y-114100000D03*
X119900000Y-86100000D03*
X144900000Y-114100000D03*
X94900000Y-58100000D03*
X144900000Y-58100000D03*
X144900000Y-86100000D03*
X69900000Y-114100000D03*
X121250000Y-116900000D03*
X71250000Y-60900000D03*
X146250000Y-116900000D03*
X121250000Y-88900000D03*
X96250000Y-60900000D03*
X96250000Y-116900000D03*
X71250000Y-88900000D03*
X146250000Y-88900000D03*
X71250000Y-116900000D03*
X121250000Y-60900000D03*
X96250000Y-88900000D03*
X146250000Y-60900000D03*
X95800000Y-86100000D03*
X120800000Y-114100000D03*
X145800000Y-86100000D03*
X120800000Y-86100000D03*
X145800000Y-58100000D03*
X70800000Y-58100000D03*
X70800000Y-86100000D03*
X145800000Y-114100000D03*
X120800000Y-58100000D03*
X95800000Y-58100000D03*
X70800000Y-114100000D03*
X95800000Y-114100000D03*
X97150000Y-88900000D03*
X72150000Y-116900000D03*
X122150000Y-60900000D03*
X122150000Y-88900000D03*
X122150000Y-116900000D03*
X72150000Y-60900000D03*
X97150000Y-60900000D03*
X147150000Y-60900000D03*
X97150000Y-116900000D03*
X147150000Y-116900000D03*
X72150000Y-88900000D03*
X147150000Y-88900000D03*
X121700000Y-86100000D03*
X121700000Y-114100000D03*
X121700000Y-58100000D03*
X71700000Y-114100000D03*
X96700000Y-114100000D03*
X96700000Y-58100000D03*
X71700000Y-58100000D03*
X96700000Y-86100000D03*
X71700000Y-86100000D03*
X146700000Y-86100000D03*
X146700000Y-58100000D03*
X146700000Y-114100000D03*
X98050000Y-116900000D03*
X73050000Y-116900000D03*
X73050000Y-88900000D03*
X98050000Y-88900000D03*
X73050000Y-60900000D03*
X123050000Y-116900000D03*
X148050000Y-116900000D03*
X123050000Y-60900000D03*
X148050000Y-88900000D03*
X148050000Y-60900000D03*
X98050000Y-60900000D03*
X123050000Y-88900000D03*
X147600000Y-114100000D03*
X122600000Y-86100000D03*
X72600000Y-86100000D03*
X147600000Y-86100000D03*
X147600000Y-58100000D03*
X72600000Y-114100000D03*
X122600000Y-58100000D03*
X97600000Y-114100000D03*
X97600000Y-86100000D03*
X72600000Y-58100000D03*
X122600000Y-114100000D03*
X97600000Y-58100000D03*
X98950000Y-88900000D03*
X73950000Y-60900000D03*
X148950000Y-60900000D03*
X123950000Y-116900000D03*
X98950000Y-116900000D03*
X73950000Y-116900000D03*
X123950000Y-60900000D03*
X123950000Y-88900000D03*
X98950000Y-60900000D03*
X73950000Y-88900000D03*
X148950000Y-116900000D03*
X148950000Y-88900000D03*
X123500000Y-86100000D03*
X123500000Y-58100000D03*
X148500000Y-58100000D03*
X98500000Y-86100000D03*
X73500000Y-58100000D03*
X73500000Y-114100000D03*
X148500000Y-114100000D03*
X123500000Y-114100000D03*
X73500000Y-86100000D03*
X98500000Y-58100000D03*
X148500000Y-86100000D03*
X98500000Y-114100000D03*
X124850000Y-60900000D03*
X99850000Y-88900000D03*
X99850000Y-116900000D03*
X74850000Y-116900000D03*
X124850000Y-116900000D03*
X149850000Y-88900000D03*
X149850000Y-116900000D03*
X74850000Y-60900000D03*
X124850000Y-88900000D03*
X149850000Y-60900000D03*
X74850000Y-88900000D03*
X99850000Y-60900000D03*
X124400000Y-114100000D03*
X149400000Y-114100000D03*
X99400000Y-114100000D03*
X99400000Y-58100000D03*
X74400000Y-58100000D03*
X124400000Y-86100000D03*
X74400000Y-114100000D03*
X149400000Y-86100000D03*
X74400000Y-86100000D03*
X149400000Y-58100000D03*
X99400000Y-86100000D03*
X124400000Y-58100000D03*
X125750000Y-60900000D03*
X125750000Y-88900000D03*
X75750000Y-60900000D03*
X125750000Y-116900000D03*
X75750000Y-116900000D03*
X150750000Y-60900000D03*
X150750000Y-88900000D03*
X100750000Y-60900000D03*
X75750000Y-88900000D03*
X150750000Y-116900000D03*
X100750000Y-116900000D03*
X100750000Y-88900000D03*
X100300000Y-86100000D03*
X75300000Y-58100000D03*
X125300000Y-58100000D03*
X75300000Y-114100000D03*
X125300000Y-114100000D03*
X150300000Y-114100000D03*
X100300000Y-58100000D03*
X150300000Y-58100000D03*
X75300000Y-86100000D03*
X100300000Y-114100000D03*
X150300000Y-86100000D03*
X125300000Y-86100000D03*
X101650000Y-116900000D03*
X76650000Y-60900000D03*
X151650000Y-60900000D03*
X126650000Y-60900000D03*
X101650000Y-88900000D03*
X76650000Y-88900000D03*
X151650000Y-116900000D03*
X126650000Y-88900000D03*
X126650000Y-116900000D03*
X76650000Y-116900000D03*
X101650000Y-60900000D03*
X151650000Y-88900000D03*
X151200000Y-114100000D03*
X151200000Y-58100000D03*
X101200000Y-86100000D03*
X76200000Y-86100000D03*
X126200000Y-58100000D03*
X76200000Y-58100000D03*
X101200000Y-114100000D03*
X151200000Y-86100000D03*
X76200000Y-114100000D03*
X101200000Y-58100000D03*
X126200000Y-114100000D03*
X126200000Y-86100000D03*
X103000000Y-86100000D03*
X78000000Y-114100000D03*
X128000000Y-114100000D03*
X78000000Y-86100000D03*
X103000000Y-114100000D03*
X103000000Y-58100000D03*
X153000000Y-86100000D03*
X128000000Y-58100000D03*
X128000000Y-86100000D03*
X78000000Y-58100000D03*
X153000000Y-114100000D03*
X153000000Y-58100000D03*
X128900000Y-86100000D03*
X78900000Y-86100000D03*
X153900000Y-114100000D03*
X78900000Y-58100000D03*
X103900000Y-86100000D03*
X78900000Y-114100000D03*
X103900000Y-114100000D03*
X153900000Y-58100000D03*
X103900000Y-58100000D03*
X153900000Y-86100000D03*
X128900000Y-58100000D03*
X128900000Y-114100000D03*
X154800000Y-86100000D03*
X79800000Y-58100000D03*
X129800000Y-58100000D03*
X129800000Y-114100000D03*
X104800000Y-114100000D03*
X154800000Y-58100000D03*
X154800000Y-114100000D03*
X79800000Y-86100000D03*
X129800000Y-86100000D03*
X104800000Y-58100000D03*
X79800000Y-114100000D03*
X104800000Y-86100000D03*
M02*
